<?xml version="1.0" encoding="UTF-8" standalone="no"?>
<svg
   xmlns:dc="http://purl.org/dc/elements/1.1/"
   xmlns:cc="http://creativecommons.org/ns#"
   xmlns:rdf="http://www.w3.org/1999/02/22-rdf-syntax-ns#"
   xmlns:svg="http://www.w3.org/2000/svg"
   xmlns="http://www.w3.org/2000/svg"
   xmlns:sodipodi="http://sodipodi.sourceforge.net/DTD/sodipodi-0.dtd"
   xmlns:inkscape="http://www.inkscape.org/namespaces/inkscape"
   version="1.1"
   x="0px"
   y="0px"
   viewBox="0 0 128 128"
   enable-background="new 0 0 100 100"
   xml:space="preserve"
   id="svg2"
   inkscape:version="0.91 r13725"
   sodipodi:docname="icon.svg"
   width="128"
   height="128"><metadata
     id="metadata30"><rdf:RDF><cc:Work
         rdf:about=""><dc:format>image/svg+xml</dc:format><dc:type
           rdf:resource="http://purl.org/dc/dcmitype/StillImage" /><dc:title></dc:title></cc:Work></rdf:RDF></metadata><defs
     id="defs28" /><sodipodi:namedview
     pagecolor="#ffffff"
     bordercolor="#666666"
     borderopacity="1"
     objecttolerance="10"
     gridtolerance="10"
     guidetolerance="10"
     inkscape:pageopacity="0"
     inkscape:pageshadow="2"
     inkscape:window-width="1312"
     inkscape:window-height="864"
     id="namedview26"
     showgrid="false"
     inkscape:zoom="1.888"
     inkscape:cx="50"
     inkscape:cy="62.5"
     inkscape:window-x="513"
     inkscape:window-y="188"
     inkscape:window-maximized="0"
     inkscape:current-layer="svg2" /><g
     id="g4158"
     transform="matrix(1.3707586,0,0,1.3707586,-4.53793,-8.6495204)"
     style="fill:#1195cd;fill-opacity:1"><path
       inkscape:connector-curvature="0"
       id="path4"
       d="m 58.585,42.561 c -0.787,0 -1.188,0.401 -1.188,1.188 l 0,9.494 c 0,0.786 0.4,1.188 1.188,1.188 l 9.494,0 c 0.786,0 1.187,-0.401 1.187,-1.188 l 0,-9.494 c 0,-0.786 -0.4,-1.188 -1.187,-1.188 l -9.494,0 z m 7.73,8.918 -5.966,0 0,-5.967 5.966,0 0,5.967 z"
       style="fill:#1195cd;fill-opacity:1" /><path
       inkscape:connector-curvature="0"
       id="path6"
       d="m 30.656,43.748 c 0,-0.786 -0.398,-1.188 -1.186,-1.188 l -9.494,0 c -0.787,0 -1.187,0.401 -1.187,1.188 l 0,9.494 c 0,0.786 0.4,1.188 1.187,1.188 l 9.494,0 c 0.788,0 1.186,-0.401 1.186,-1.188 l 0,-9.494 z m -2.951,7.731 -5.965,0 0,-5.967 5.965,0 0,5.967 z"
       style="fill:#1195cd;fill-opacity:1" /><path
       inkscape:connector-curvature="0"
       id="path8"
       d="m 49.961,43.748 c 0,-0.786 -0.399,-1.188 -1.187,-1.188 l -9.493,0 c -0.787,0 -1.188,0.401 -1.188,1.188 l 0,9.494 c 0,0.786 0.4,1.188 1.188,1.188 l 9.493,0 c 0.787,0 1.187,-0.401 1.187,-1.188 l 0,-9.494 z m -2.951,7.731 -5.965,0 0,-5.967 5.965,0 0,5.967 z"
       style="fill:#1195cd;fill-opacity:1" /><path
       inkscape:connector-curvature="0"
       id="path10"
       d="m 29.47,59.757 -9.494,0 c -0.787,0 -1.187,0.399 -1.187,1.187 l 0,9.493 c 0,0.787 0.4,1.187 1.187,1.187 l 9.494,0 c 0.788,0 1.186,-0.399 1.186,-1.187 l 0,-9.493 c 0,-0.788 -0.399,-1.187 -1.186,-1.187 z m -1.765,8.916 -5.965,0 0,-5.966 5.965,0 0,5.966 z"
       style="fill:#1195cd;fill-opacity:1" /><path
       inkscape:connector-curvature="0"
       id="path12"
       d="m 48.774,59.757 -9.493,0 c -0.787,0 -1.188,0.399 -1.188,1.187 l 0,9.493 c 0,0.787 0.4,1.187 1.188,1.187 l 9.493,0 c 0.787,0 1.187,-0.399 1.187,-1.187 l 0,-9.493 c 0,-0.788 -0.399,-1.187 -1.187,-1.187 z m -1.764,8.916 -5.965,0 0,-5.966 5.965,0 0,5.966 z"
       style="fill:#1195cd;fill-opacity:1" /><path
       inkscape:connector-curvature="0"
       id="path14"
       d="m 73.095,56.815 c -11.355,0 -20.594,9.236 -20.594,20.59 0,11.359 9.239,20.595 20.594,20.595 11.353,0 20.594,-9.236 20.594,-20.595 0,-11.353 -9.241,-20.59 -20.594,-20.59 z m 0,38.234 c -9.729,0 -17.643,-7.915 -17.643,-17.644 0,-9.727 7.915,-17.639 17.643,-17.639 9.728,0 17.643,7.912 17.643,17.639 0,9.729 -7.914,17.644 -17.643,17.644 z"
       style="fill:#1195cd;fill-opacity:1" /><path
       inkscape:connector-curvature="0"
       id="path16"
       d="m 48.307,85.064 c 0.815,0 1.475,-0.661 1.475,-1.476 0,-0.815 -0.66,-1.476 -1.475,-1.476 l -32.61,0 c -4.451,0 -6.435,-1.984 -6.435,-6.435 l 0,-47.024 c 0,-4.452 1.984,-6.438 6.435,-6.438 l 3.149,0 0,1.541 c 0,3.475 2.335,5.809 5.809,5.809 3.475,0 5.81,-2.334 5.81,-5.809 l 0,-1.541 27.125,0 0,1.541 c 0,3.475 2.334,5.809 5.809,5.809 3.475,0 5.81,-2.334 5.81,-5.809 l 0,-1.541 3.148,0 c 4.451,0 6.436,1.985 6.436,6.438 l 0,24.33 c 0,0.814 0.661,1.476 1.476,1.476 0.815,0 1.475,-0.661 1.475,-1.476 l 0,-24.33 c 0,-6.054 -3.333,-9.388 -9.387,-9.388 l -3.148,0 0,-5.458 c 0,-3.42 -2.389,-5.808 -5.81,-5.808 -3.42,0 -5.809,2.388 -5.809,5.808 l 0,5.458 -27.125,0 0,-5.458 c 0,-3.42 -2.389,-5.808 -5.81,-5.808 -3.42,0 -5.809,2.388 -5.809,5.808 l 0,5.458 -3.149,0 c -6.053,0 -9.386,3.334 -9.386,9.388 l 0,47.025 c 0,6.053 3.333,9.386 9.386,9.386 l 32.61,0 z M 60.541,13.808 c 0,-1.815 1.042,-2.856 2.858,-2.856 1.817,0 2.859,1.041 2.859,2.856 l 0,9.949 c 0,1.816 -1.042,2.857 -2.859,2.857 -1.816,0 -2.858,-1.041 -2.858,-2.857 l 0,-9.949 z m -38.744,0 c 0,-1.815 1.042,-2.856 2.858,-2.856 1.817,0 2.859,1.041 2.859,2.856 l 0,9.949 c 0,1.816 -1.042,2.857 -2.859,2.857 -1.816,0 -2.858,-1.041 -2.858,-2.857 l 0,-9.949 z"
       style="fill:#1195cd;fill-opacity:1" /><rect
       id="rect18"
       height="2.95"
       width="60.716999"
       y="34.318001"
       x="13.668"
       style="fill:#1195cd;fill-opacity:1" /><path
       inkscape:connector-curvature="0"
       id="path20"
       d="m 81.64,84.387 -8.414,-6.226 0,-12.142 c 0,-0.814 -0.66,-1.476 -1.475,-1.476 -0.815,0 -1.476,0.661 -1.476,1.476 l 0,12.886 c 0,0.468 0.222,0.907 0.598,1.187 l 9.011,6.669 c 0.264,0.195 0.571,0.289 0.876,0.289 0.452,0 0.897,-0.207 1.187,-0.598 0.486,-0.656 0.348,-1.58 -0.307,-2.065 z"
       style="fill:#1195cd;fill-opacity:1" /></g></svg>