<?xml version="1.0" encoding="UTF-8" standalone="no"?>
<svg
   xmlns:dc="http://purl.org/dc/elements/1.1/"
   xmlns:cc="http://creativecommons.org/ns#"
   xmlns:rdf="http://www.w3.org/1999/02/22-rdf-syntax-ns#"
   xmlns:svg="http://www.w3.org/2000/svg"
   xmlns="http://www.w3.org/2000/svg"
   xmlns:sodipodi="http://sodipodi.sourceforge.net/DTD/sodipodi-0.dtd"
   xmlns:inkscape="http://www.inkscape.org/namespaces/inkscape"
   version="1.1"
   x="0px"
   y="0px"
   viewBox="0 0 24 24"
   xml:space="preserve"
   id="svg2"
   inkscape:version="0.91 r13725"
   sodipodi:docname="noun_tick_684585.svg"
   width="24"
   height="24"><metadata
     id="metadata14"><rdf:RDF><cc:Work
         rdf:about=""><dc:format>image/svg+xml</dc:format><dc:type
           rdf:resource="http://purl.org/dc/dcmitype/StillImage" /><dc:title></dc:title></cc:Work></rdf:RDF></metadata><defs
     id="defs12" /><sodipodi:namedview
     pagecolor="#ffffff"
     bordercolor="#666666"
     borderopacity="1"
     objecttolerance="10"
     gridtolerance="10"
     guidetolerance="10"
     inkscape:pageopacity="0"
     inkscape:pageshadow="2"
     inkscape:window-width="1857"
     inkscape:window-height="1056"
     id="namedview10"
     showgrid="false"
     inkscape:zoom="4.7536219"
     inkscape:cx="38.135593"
     inkscape:cy="43.697034"
     inkscape:window-x="63"
     inkscape:window-y="24"
     inkscape:window-maximized="1"
     inkscape:current-layer="svg2" /><path
     d="M 12.000001,0.1 C 5.4193549,0.1 0.1000002,5.419355 0.1000002,11.999999 0.1000002,18.580645 5.4193549,23.9 12.000001,23.9 18.580646,23.9 23.9,18.580645 23.9,11.999999 23.9,5.419355 18.580646,0.1 12.000001,0.1 Z m 5.758064,9.4322587 -7.046773,7.0193543 c -0.219356,0.219355 -0.493549,0.329032 -0.7677432,0.329032 -0.2741944,0 -0.5758064,-0.109677 -0.7677422,-0.329032 L 5.6935481,13.096774 c -0.4387092,-0.43871 -0.4387092,-1.124194 0,-1.562904 0.4387102,-0.438709 1.1241937,-0.438709 1.5629039,0 l 2.6870968,2.687097 6.2516132,-6.2516123 c 0.438709,-0.4387092 1.124194,-0.4387092 1.562903,0 0.41129,0.4387102 0.41129,1.1516137 0,1.562904 z"
     id="path4"
     inkscape:connector-curvature="0"
     style="fill:#8ec34f;fill-opacity:0.94117647" /></svg>