<?xml version="1.0" encoding="UTF-8" standalone="no"?>
<svg
   xmlns:dc="http://purl.org/dc/elements/1.1/"
   xmlns:cc="http://creativecommons.org/ns#"
   xmlns:rdf="http://www.w3.org/1999/02/22-rdf-syntax-ns#"
   xmlns:svg="http://www.w3.org/2000/svg"
   xmlns="http://www.w3.org/2000/svg"
   xmlns:sodipodi="http://sodipodi.sourceforge.net/DTD/sodipodi-0.dtd"
   xmlns:inkscape="http://www.inkscape.org/namespaces/inkscape"
   version="1.1"
   x="0px"
   y="0px"
   viewBox="0 0 24 24"
   enable-background="new 0 0 24 24"
   xml:space="preserve"
   id="svg2"
   inkscape:version="0.91 r13725"
   sodipodi:docname="completion-manual-n.svg"
   width="24"
   height="24"><metadata
     id="metadata20"><rdf:RDF><cc:Work
         rdf:about=""><dc:format>image/svg+xml</dc:format><dc:type
           rdf:resource="http://purl.org/dc/dcmitype/StillImage" /><dc:title></dc:title></cc:Work></rdf:RDF></metadata><defs
     id="defs18" /><sodipodi:namedview
     pagecolor="#ffffff"
     bordercolor="#666666"
     borderopacity="1"
     objecttolerance="10"
     gridtolerance="10"
     guidetolerance="10"
     inkscape:pageopacity="0"
     inkscape:pageshadow="2"
     inkscape:window-width="1857"
     inkscape:window-height="1056"
     id="namedview16"
     showgrid="false"
     inkscape:zoom="7.8666667"
     inkscape:cx="12"
     inkscape:cy="15"
     inkscape:window-x="63"
     inkscape:window-y="24"
     inkscape:window-maximized="1"
     inkscape:current-layer="svg2" /><g
     id="g4148"
     style="opacity:0.209"><g
       transform="translate(-0.036,0.0625)"
       id="g4"
       style=""><path
         inkscape:connector-curvature="0"
         id="path6"
         d="M 12.036,23.875 C 5.454,23.875 0.098,18.52 0.098,11.937 0.099,5.355 5.454,0 12.036,0 c 6.582,0 11.938,5.355 11.938,11.938 0,6.582 -5.356,11.937 -11.938,11.937 z m 0,-22.039 c -5.57,0 -10.101,4.531 -10.101,10.101 0,5.569 4.531,10.101 10.101,10.101 5.569,0 10.101,-4.531 10.101,-10.101 0,-5.569 -4.532,-10.101 -10.101,-10.101 z"
         style="" /></g><g
       transform="translate(-0.036125,0.06225)"
       id="g8"
       style=""><path
         inkscape:connector-curvature="0"
         id="path10"
         d="m 10.458,15.84 c -0.235,0 -0.47,-0.09 -0.649,-0.269 L 6.997,12.758 c -0.359,-0.358 -0.359,-0.939 0,-1.298 0.358,-0.359 0.939,-0.359 1.298,0 l 2.163,2.163 5.319,-5.319 c 0.358,-0.358 0.939,-0.358 1.299,0 0.358,0.359 0.358,0.94 0,1.299 l -5.969,5.969 c -0.179,0.178 -0.414,0.268 -0.649,0.268 z"
         style="" /></g></g></svg>