<?xml version="1.0" encoding="utf-8"?>
<!-- Generator: Adobe Illustrator 24.2.3, SVG Export Plug-In . SVG Version: 6.00 Build 0)  -->
<svg version="1.1" id="Layer_1" xmlns="http://www.w3.org/2000/svg" xmlns:xlink="http://www.w3.org/1999/xlink" x="0px" y="0px"
	 viewBox="0 0 128 128" style="enable-background:new 0 0 128 128;" xml:space="preserve">
<style type="text/css">
	.st0{fill:#1195CD;}
</style>
<g>
	<g>
		<g>
			<path class="st0" d="M114.7,128H13.3C6,128,0,122,0,114.7V24c0-1.5,1.2-2.7,2.7-2.7h122.7c1.5,0,2.7,1.2,2.7,2.7v90.7
				C128,122,122,128,114.7,128z M5.3,26.7v88c0,4.4,3.6,8,8,8h101.3c4.4,0,8-3.6,8-8v-88H5.3z"/>
		</g>
		<g>
			<path class="st0" d="M125.3,26.7c-0.6,0-1.2-0.2-1.7-0.6L97.7,5.3H30.3L4.3,26.1c-1.2,0.9-2.8,0.7-3.8-0.4
				c-0.9-1.2-0.7-2.8,0.4-3.7L27.7,0.6C28.1,0.2,28.7,0,29.3,0h69.3c0.6,0,1.2,0.2,1.7,0.6L127,21.9c1.1,0.9,1.3,2.6,0.4,3.7
				C126.9,26.3,126.1,26.7,125.3,26.7z"/>
		</g>
		<g>
			<path class="st0" d="M82.7,64H45.3c-1.5,0-2.7-1.2-2.7-2.7v-16c0-1.5,1.2-2.7,2.7-2.7h37.3c1.5,0,2.7,1.2,2.7,2.7v16
				C85.3,62.8,84.1,64,82.7,64z M48,58.7h32V48H48V58.7z"/>
		</g>
	</g>
</g>
</svg>
