<?xml version="1.0" encoding="utf-8"?>
<!-- Generator: Adobe Illustrator 24.2.3, SVG Export Plug-In . SVG Version: 6.00 Build 0)  -->
<svg version="1.1" id="Layer_1" xmlns="http://www.w3.org/2000/svg" xmlns:xlink="http://www.w3.org/1999/xlink" x="0px" y="0px"
	 viewBox="0 0 128 128" style="enable-background:new 0 0 128 128;" xml:space="preserve">
<style type="text/css">
	.st0{fill:#1195CD;stroke:#1195CD;stroke-width:2;stroke-miterlimit:10;}
</style>
<g>
	<path class="st0" d="M54,90.9c-1.9,0.2-3.8,0.4-5.6,0.4c-7.5,0-14.9-2-21.4-5.7c-0.4-0.3-1-0.3-1.5-0.2L6.2,90.5l5.2-19.1
		c0.1-0.5,0.1-1-0.2-1.5c-12-20.5-5.1-46.8,15.4-58.8S73.5,6,85.5,26.5c2.9,5,4.8,10.5,5.5,16.2c0.1,0.6,0.1,1.2,0.2,1.7
		c0.1,1.1,1,1.9,2.1,1.8c1.1-0.1,1.9-1,1.8-2.1c-0.1-0.6-0.1-1.3-0.2-1.9C91.6,16.5,68-1.5,42.3,1.8S-1.5,28.8,1.9,54.4
		C2.7,60.3,4.6,66,7.4,71.2L1.6,92.7c-0.3,1,0.3,2.1,1.4,2.4c0.2,0,0.3,0.1,0.5,0.1c0.2,0,0.3,0,0.5-0.1l21.8-5.7
		c6.9,3.8,14.7,5.8,22.6,5.8c2.1,0,4.1-0.1,6.1-0.4c1.1-0.1,1.8-1.1,1.7-2.2C56.1,91.5,55.1,90.8,54,90.9L54,90.9z"/>
	<path class="st0" d="M48.4,22.4c-7.6,0-13.7,6.1-13.7,13.7c0,1.1,0.9,2,2,2s2-0.9,2-2c0-5.4,4.4-9.8,9.8-9.8s9.8,4.4,9.8,9.8
		c0,3.7-2.1,6-4.7,8.8c-3.1,3.4-7,7.5-7,15.4c0,1.1,0.9,2,2,2s2-0.9,2-2c0-6.3,2.9-9.4,6-12.7c2.8-3,5.7-6.1,5.7-11.4
		C62.1,28.6,56,22.4,48.4,22.4C48.4,22.4,48.4,22.4,48.4,22.4z"/>
	<circle class="st0" cx="48.4" cy="70" r="2.2"/>
	<path class="st0" d="M115.9,68.8l3.3-3.9l2,1.6c0.4,0.3,0.8,0.4,1.2,0.4c1.1,0,1.9-0.9,1.9-2c0-0.6-0.3-1.1-0.7-1.5l-3.4-2.8l0,0
		l-3.5-2.9c-0.8-0.7-2.1-0.6-2.8,0.3c-0.7,0.8-0.6,2.1,0.3,2.8l2,1.6l-3.2,3.9c-5.1-3.7-11.2-5.9-17.6-6.3v-5.9h5.9c1.1,0,2-0.9,2-2
		c0-1.1-0.9-2-2-2H85.5c-1.1,0-2,0.9-2,2c0,1.1,0.9,2,2,2h5.9v5.9C73,61.1,59,76.8,60,95.1c1,18.3,16.7,32.4,35.1,31.4
		c18.3-1,32.4-16.7,31.4-35.1C126,82.8,122.2,74.7,115.9,68.8L115.9,68.8z M93.3,122.6c-16.2,0-29.3-13.1-29.3-29.3
		s13.1-29.3,29.3-29.3s29.3,13.1,29.3,29.3S109.5,122.6,93.3,122.6z"/>
	<path class="st0" d="M95.3,88V71.8c0-1.1-0.9-2-2-2s-2,0.9-2,2V88c-2.9,1.1-4.4,4.3-3.3,7.2c0.6,1.5,1.8,2.8,3.3,3.3v0.8
		c0,1.1,0.9,2,2,2s2-0.9,2-2v-0.8c2.9-1.1,4.4-4.3,3.3-7.2C98.1,89.7,96.8,88.5,95.3,88z M93.3,95c-1,0-1.7-0.8-1.7-1.7
		c0-1,0.8-1.7,1.7-1.7s1.7,0.8,1.7,1.7v0C95.1,94.2,94.3,95,93.3,95z"/>
</g>
</svg>
