<?xml version="1.0" encoding="utf-8"?>
<!-- Generator: Adobe Illustrator 24.2.3, SVG Export Plug-In . SVG Version: 6.00 Build 0)  -->
<svg version="1.1" id="Layer_1" xmlns="http://www.w3.org/2000/svg" xmlns:xlink="http://www.w3.org/1999/xlink" x="0px" y="0px"
	 viewBox="0 0 128 128" style="enable-background:new 0 0 128 128;" xml:space="preserve">
<style type="text/css">
	.st0{fill:#1195CD;}
</style>
<path class="st0" d="M125,8.4H94.5c-1.7,0-3,1.4-3,3V45H67V34.3c0-1.7-1.4-3-3-3H33.5c-1.7,0-3,1.4-3,3v30.5H3c-1.7,0-3,1.4-3,3
	v48.8c0,1.7,1.4,3,3,3h30.5H64h30.5H125c1.7,0,3-1.4,3-3V11.4C128,9.8,126.6,8.4,125,8.4z M6.1,70.9h24.4v42.7H6.1V70.9z M36.6,67.8
	V37.3H61V48v65.5H36.6V67.8z M67,51h24.4v62.5H67V51z M121.9,113.5H97.5V48V14.5h24.4V113.5z"/>
</svg>
