<?xml version="1.0" encoding="utf-8"?>
<!-- Generator: Adobe Illustrator 24.2.3, SVG Export Plug-In . SVG Version: 6.00 Build 0)  -->
<svg version="1.1" id="Layer_1" xmlns="http://www.w3.org/2000/svg" xmlns:xlink="http://www.w3.org/1999/xlink" x="0px" y="0px"
	 viewBox="0 0 128 128" style="enable-background:new 0 0 128 128;" xml:space="preserve">
<style type="text/css">
	.st0{fill:#1195CD;}
</style>
<g>
	<path class="st0" d="M43.6,123.2h0.1c9.7,0,19.2-0.1,28.8-0.4c7.2-0.2,14.8-2.6,21.5-5.6c20.9-9.2,32.3-27.4,33.3-46.2
		c0.2-1.6,0.4-3.3,0.5-4.9c1.4-32.6-27.5-61.4-61.5-61.4C32.5,4.7,5,32.2,4.9,66.1c0,11.4,3.2,22.7,9.2,32.4
		c-0.1,0.9-0.4,1.9-0.8,2.7c-4.1,7.2-8.6,14.2-13.3,21.9c13.7,0,27.2,0.1,40.6,0.1H43.6z M13.8,115.5c2.2-3.5,4.2-6.9,6.2-10.4
		c1-1.7,1.6-3.6,1.8-5.6l0.3-2.7l-1.4-2.3c-15.6-25.3-7.8-58.4,17.4-74c8.5-5.3,18.3-8,28.3-8c15,0.1,29.2,6.3,39.5,17.2
		c9.8,10.2,14.8,23.1,14.2,36.2c-0.1,1.4-0.2,2.8-0.4,4.2v0.3v0.3c-0.9,17.2-11.7,32-28.8,39.5c-7.1,3.1-13.4,4.8-18.7,4.9
		c-8.4,0.3-17.5,0.4-28.5,0.4h-3.3c-6.6,0-13.4,0-19.9,0L13.8,115.5z"/>
	<path class="st0" d="M66.4,71.4c4.1,0,7.4-3.2,7.4-7.3c0-4.1-3.2-7.4-7.3-7.4c-4.1,0-7.4,3.2-7.4,7.3c0,0,0,0.1,0,0.1
		C59.2,68,62.4,71.3,66.4,71.4z"/>
	<path class="st0" d="M47.9,64.1c0-4-3.2-7.3-7.3-7.4c-4,0-7.3,3.2-7.4,7.3c0,4,3.2,7.3,7.3,7.4c0,0,0,0,0.1,0
		C44.6,71.3,47.8,68.1,47.9,64.1z"/>
	<path class="st0" d="M92.5,71.4c4.1,0,7.4-3.3,7.4-7.3c0-4.1-3.3-7.4-7.3-7.4c-4.1,0-7.4,3.3-7.4,7.3c0,0,0,0,0,0
		C85.1,68.1,88.4,71.3,92.5,71.4z"/>
</g>
</svg>
