<?xml version="1.0" encoding="utf-8"?>
<!-- Generator: Adobe Illustrator 24.2.3, SVG Export Plug-In . SVG Version: 6.00 Build 0)  -->
<svg version="1.1" id="Layer_1" xmlns="http://www.w3.org/2000/svg" xmlns:xlink="http://www.w3.org/1999/xlink" x="0px" y="0px"
	 viewBox="0 0 128 128" style="enable-background:new 0 0 128 128;" xml:space="preserve">
<style type="text/css">
	.st0{fill:#1195CD;}
</style>
<g>
	<path class="st0" d="M64,128c-30.2,0-53.8-11.3-53.8-25.6V25.6C10.2,11.3,33.8,0,64,0c30.2,0,53.8,11.3,53.8,25.6v76.8
		C117.8,116.7,94.2,128,64,128z M15.4,87.9v14.5c0,9.9,19.6,20.5,48.6,20.5c29.1,0,48.6-10.6,48.6-20.5V87.9
		c-8.6,8.7-26.9,14.5-48.6,14.5S23.9,96.6,15.4,87.9z M15.4,76.8c0,9.9,19.6,20.5,48.6,20.5c29.1,0,48.6-10.6,48.6-20.5V62.3
		C104.1,71,85.8,76.8,64,76.8S23.9,71,15.4,62.3V76.8z M15.4,51.2c0,9.9,19.6,20.5,48.6,20.5c29.1,0,48.6-10.6,48.6-20.5V36.7
		c-8.6,8.7-26.9,14.5-48.6,14.5s-40.1-5.8-48.6-14.5V51.2z M64,5.1c-29.1,0-48.6,10.6-48.6,20.5S34.9,46.1,64,46.1
		c29.1,0,48.6-10.6,48.6-20.5S93.1,5.1,64,5.1z"/>
</g>
</svg>
