<?xml version="1.0" encoding="utf-8"?>
<!-- Generator: Adobe Illustrator 24.2.3, SVG Export Plug-In . SVG Version: 6.00 Build 0)  -->
<svg version="1.1" id="Layer_1" xmlns="http://www.w3.org/2000/svg" xmlns:xlink="http://www.w3.org/1999/xlink" x="0px" y="0px"
	 viewBox="0 0 128 128" style="enable-background:new 0 0 128 128;" xml:space="preserve">
<style type="text/css">
	.st0{fill:#1195CD;}
</style>
<g>
	<path class="st0" d="M110.1,20.1h2.1c1.2,0,2.1-0.9,2.1-2.1v-6.3c0-1.2-0.9-2.1-2.1-2.1H99.6V3.3c0-1.2-0.9-2.1-2.1-2.1h-67
		c-8.1,0-14.6,6.6-14.6,14.6v58.6c0,8.1,6.6,14.6,14.6,14.6h23v4.2h-2.1v4.2h2.1v4.2h-2.1v4.2h2.1v2.1h-2.1c-1.2,0-2.1,0.9-2.1,2.1
		H32.6c-3.5-4.6-10-5.6-14.6-2.1s-5.6,10-2.1,14.6c3.5,4.6,10,5.6,14.6,2.1c0.8-0.6,1.5-1.3,2.1-2.1h16.8c0,1.2,0.9,2.1,2.1,2.1
		h20.9c1.2,0,2.1-0.9,2.1-2.1h16.8c3.5,4.6,10,5.6,14.6,2.1s5.6-10,2.1-14.6s-10-5.6-14.6-2.1c-0.8,0.6-1.5,1.3-2.1,2.1H74.5
		c0-1.2-0.9-2.1-2.1-2.1h-2.1v-2.1h2.1v-4.2h-2.1v-4.2h2.1v-4.2h-2.1v-4.2h27.2c1.2,0,2.1-0.9,2.1-2.1v-6.3h12.6
		c1.2,0,2.1-0.9,2.1-2.1v-6.3c0-1.2-0.9-2.1-2.1-2.1h-2.1V20.1z M24.3,122.6c-3.5,0-6.3-2.8-6.3-6.3s2.8-6.3,6.3-6.3
		s6.3,2.8,6.3,6.3S27.7,122.6,24.3,122.6z M34.5,118.4c0.3-1.4,0.3-2.8,0-4.2h14.9v4.2H34.5z M99.6,110c3.5,0,6.3,2.8,6.3,6.3
		s-2.8,6.3-6.3,6.3s-6.3-2.8-6.3-6.3S96.1,110,99.6,110z M89.3,114.2c-0.3,1.4-0.3,2.8,0,4.2H74.5v-4.2H89.3z M105.9,32.6H51.5v-4.2
		h27.2c0.8,0,1.6-0.5,1.9-1.3l3.1-7.1h22.2V32.6z M47.3,70.3H36.8V20.1h42.3l-1.8,4.2H49.4c-1.2,0-2.1,0.9-2.1,2.1V70.3z
		 M110.1,15.9H47.3v-2.1h62.8V15.9z M70.3,120.5H53.6v-8.4h16.7V120.5z M66.1,107.9h-8.4v-2.1h8.4V107.9z M66.1,101.7h-8.4v-4.2h8.4
		V101.7z M66.1,93.3h-8.4v-4.2h8.4V93.3z M95.4,84.9H30.5c-5.8,0-10.5-4.7-10.5-10.5V15.9c0-5.8,4.7-10.5,10.5-10.5h64.9v4.2H45.2
		c-1.2,0-2.1,0.9-2.1,2.1v4.2h-8.4c-1.2,0-2.1,0.9-2.1,2.1v54.4c0,1.2,0.9,2.1,2.1,2.1h8.4v4.2c0,1.2,0.9,2.1,2.1,2.1h50.2V84.9z
		 M110.1,76.6H47.3v-2.1h62.8V76.6z M105.9,70.3H51.5V36.8h54.4V70.3z"/>
	<rect x="55.7" y="41" class="st0" width="8.4" height="4.2"/>
	<rect x="55.7" y="49.4" class="st0" width="25.1" height="4.2"/>
</g>
</svg>
