<?xml version="1.0" encoding="UTF-8" standalone="no"?>
<svg
   xmlns:dc="http://purl.org/dc/elements/1.1/"
   xmlns:cc="http://creativecommons.org/ns#"
   xmlns:rdf="http://www.w3.org/1999/02/22-rdf-syntax-ns#"
   xmlns:svg="http://www.w3.org/2000/svg"
   xmlns="http://www.w3.org/2000/svg"
   height="128"
   width="128"
   id="svg2"
   xml:space="preserve"
   viewBox="0 0 128 128"
   y="0px"
   x="0px"
   version="1.1"><metadata
     id="metadata32"><rdf:RDF><cc:Work
         rdf:about=""><dc:format>image/svg+xml</dc:format><dc:type
           rdf:resource="http://purl.org/dc/dcmitype/StillImage" /><dc:title></dc:title></cc:Work></rdf:RDF></metadata><defs
     id="defs30" /><g
     style="stroke:none;stroke-opacity:1;fill:#1195cd;fill-opacity:1"
     transform="matrix(1.3945236,0,0,1.3945236,-5.72618,-5.7653191)"
     id="g4160"><g
       style="stroke:none;stroke-opacity:1;fill:#1195cd;fill-opacity:1"
       id="g4"><g
         style="stroke:none;stroke-opacity:1;fill:#1195cd;fill-opacity:1"
         id="g6"><g
           style="stroke:none;stroke-opacity:1;fill:#1195cd;fill-opacity:1"
           id="g8"><g
             style="stroke:none;stroke-opacity:1;fill:#1195cd;fill-opacity:1"
             id="g10"><path
               style="stroke:none;stroke-opacity:1;fill:#1195cd;fill-opacity:1"
               d="m 52.1,95 c -1,0 -2,-0.3 -2.8,-0.9 L 23.8,74.9 9.7,74.9 C 7.1,74.9 5,72.7 5,70 L 5,30 c 0,-2.7 2.1,-4.9 4.7,-4.9 l 14.1,0 L 49.3,6 c 1.4,-1.1 3.3,-1.2 4.8,-0.5 1.7,0.8 2.7,2.5 2.7,4.4 l 0,80.2 c 0,1.9 -1,3.6 -2.7,4.4 -0.6,0.3 -1.3,0.5 -2,0.5 z M 9.7,29.4 c -0.3,0 -0.5,0.3 -0.5,0.7 l 0,39.9 c 0,0.4 0.2,0.7 0.5,0.7 l 14.8,0 c 0.5,0 0.9,0.1 1.3,0.4 l 26,19.6 c 0.1,0.1 0.2,0.1 0.4,0 0.1,-0.1 0.3,-0.2 0.3,-0.6 l 0,-80.2 c 0,-0.4 -0.2,-0.6 -0.3,-0.6 -0.2,-0.1 -0.3,0 -0.4,0 l -26,19.6 c -0.4,0.3 -0.8,0.4 -1.3,0.4 l -14.8,0 z"
               id="path12" /></g></g></g><g
         style="stroke:none;stroke-opacity:1;fill:#1195cd;fill-opacity:1"
         id="g14"><path
           style="stroke:none;stroke-opacity:1;fill:#1195cd;fill-opacity:1"
           d="m 62,70 c -1.1,0 -2.1,-0.9 -2.1,-2.1 0,-1.2 0.9,-2.1 2.1,-2.2 8.6,-0.2 15.5,-7.3 15.5,-15.8 0,-8.5 -7,-15.6 -15.5,-15.8 -1.2,0 -2.1,-1 -2.1,-2.2 0,-1.1 1,-2.1 2.1,-2.1 0,0 0,0 0,0 10.8,0.2 19.6,9.2 19.6,20 0,10.8 -8.8,20 -19.6,20.2 0,0 0,0 0,0 z"
           id="path16" /></g><g
         style="stroke:none;stroke-opacity:1;fill:#1195cd;fill-opacity:1"
         id="g18"><g
           style="stroke:none;stroke-opacity:1;fill:#1195cd;fill-opacity:1"
           id="g20"><path
             style="stroke:none;stroke-opacity:1;fill:#1195cd;fill-opacity:1"
             d="m 62,83.5 c -1.2,0 -2.1,-0.9 -2.1,-2.1 0,-1.2 0.9,-2.1 2.1,-2.1 C 77.8,79 90.8,65.9 90.8,50 c 0,-15.9 -13,-29 -28.9,-29.3 -1.2,0 -2.1,-1 -2.1,-2.1 0,-1.2 1,-2.1 2.1,-2.1 0,0 0,0 0,0 C 80.2,16.8 95,31.8 95,50 95,68.2 80.2,83.2 62,83.5 c 0,0 0,0 0,0 z"
             id="path22" /></g></g></g></g></svg>