<?xml version="1.0" encoding="UTF-8" standalone="no"?>
<!-- Generator: Adobe Illustrator 24.2.3, SVG Export Plug-In . SVG Version: 6.00 Build 0)  -->

<svg
   xmlns:dc="http://purl.org/dc/elements/1.1/"
   xmlns:cc="http://creativecommons.org/ns#"
   xmlns:rdf="http://www.w3.org/1999/02/22-rdf-syntax-ns#"
   xmlns:svg="http://www.w3.org/2000/svg"
   xmlns="http://www.w3.org/2000/svg"
   xmlns:sodipodi="http://sodipodi.sourceforge.net/DTD/sodipodi-0.dtd"
   xmlns:inkscape="http://www.inkscape.org/namespaces/inkscape"
   version="1.1"
   id="Layer_1"
   x="0px"
   y="0px"
   viewBox="0 0 128 128"
   style="enable-background:new 0 0 128 128;"
   xml:space="preserve"
   inkscape:version="0.91 r13725"
   sodipodi:docname="calc.svg"><metadata
     id="metadata11"><rdf:RDF><cc:Work
         rdf:about=""><dc:format>image/svg+xml</dc:format><dc:type
           rdf:resource="http://purl.org/dc/dcmitype/StillImage" /></cc:Work></rdf:RDF></metadata><defs
     id="defs9" /><sodipodi:namedview
     pagecolor="#ffffff"
     bordercolor="#666666"
     borderopacity="1"
     objecttolerance="10"
     gridtolerance="10"
     guidetolerance="10"
     inkscape:pageopacity="0"
     inkscape:pageshadow="2"
     inkscape:window-width="1857"
     inkscape:window-height="1056"
     id="namedview7"
     showgrid="false"
     inkscape:zoom="1.84375"
     inkscape:cx="64"
     inkscape:cy="64"
     inkscape:window-x="63"
     inkscape:window-y="24"
     inkscape:window-maximized="1"
     inkscape:current-layer="Layer_1" /><style
     type="text/css"
     id="style3">
	.st0{fill:#1195CD;}
</style><path
     class="st0"
     d="m 123.19068,10.049155 -29.595341,0 c -1.649576,0 -2.911017,1.358475 -2.911017,2.911017 l 0,32.60339 -23.773305,0 0,-10.382627 c 0,-1.649577 -1.358475,-2.911017 -2.911017,-2.911017 l -29.595339,0 c -1.649576,0 -2.911017,1.358474 -2.911017,2.911017 l 0,29.595339 -26.6843221,0 c -1.6495762,0 -2.9110169,1.358474 -2.9110169,2.911017 l 0,47.352539 c 0,1.64957 1.3584746,2.91102 2.9110169,2.91102 l 29.5953391,0 29.595339,0 29.595339,0 29.595341,0 c 1.64958,0 2.91101,-1.35847 2.91101,-2.91102 l 0,-102.079658 c 10e-6,-1.552542 -1.35846,-2.911017 -2.91101,-2.911017 z M 7.8173728,70.695341 l 23.6762712,0 0,41.433469 -23.6762712,0 0,-41.433469 z m 29.5953392,-3.00805 0,-29.595339 23.676271,0 0,10.382627 0,63.557211 -23.676271,0 0,-44.344499 z m 29.498305,-16.301695 23.676271,0 0,60.646194 -23.676271,0 0,-60.646194 z m 53.271613,60.646194 -23.676274,0 0,-63.557211 0,-32.506356 23.676274,0 0,96.063567 z"
     id="path5"
     inkscape:connector-curvature="0"
     style="fill:#1195cd" /></svg>