<?xml version="1.0" encoding="UTF-8" standalone="no"?>
<!-- Generator: Adobe Illustrator 24.2.3, SVG Export Plug-In . SVG Version: 6.00 Build 0)  -->

<svg
   xmlns:dc="http://purl.org/dc/elements/1.1/"
   xmlns:cc="http://creativecommons.org/ns#"
   xmlns:rdf="http://www.w3.org/1999/02/22-rdf-syntax-ns#"
   xmlns:svg="http://www.w3.org/2000/svg"
   xmlns="http://www.w3.org/2000/svg"
   xmlns:sodipodi="http://sodipodi.sourceforge.net/DTD/sodipodi-0.dtd"
   xmlns:inkscape="http://www.inkscape.org/namespaces/inkscape"
   version="1.1"
   id="Layer_1"
   x="0px"
   y="0px"
   viewBox="0 0 128 128"
   style="enable-background:new 0 0 128 128;"
   xml:space="preserve"
   inkscape:version="0.91 r13725"
   sodipodi:docname="folder.svg"
   inkscape:export-filename="/var/www/moodle39/theme/bluesky/pix_core/f/folder-24.png"
   inkscape:export-xdpi="150"
   inkscape:export-ydpi="150"><metadata
     id="metadata15"><rdf:RDF><cc:Work
         rdf:about=""><dc:format>image/svg+xml</dc:format><dc:type
           rdf:resource="http://purl.org/dc/dcmitype/StillImage" /></cc:Work></rdf:RDF></metadata><defs
     id="defs13" /><sodipodi:namedview
     pagecolor="#ffffff"
     bordercolor="#666666"
     borderopacity="1"
     objecttolerance="10"
     gridtolerance="10"
     guidetolerance="10"
     inkscape:pageopacity="0"
     inkscape:pageshadow="2"
     inkscape:window-width="1857"
     inkscape:window-height="1056"
     id="namedview11"
     showgrid="false"
     inkscape:zoom="1.84375"
     inkscape:cx="63.457627"
     inkscape:cy="64"
     inkscape:window-x="63"
     inkscape:window-y="24"
     inkscape:window-maximized="1"
     inkscape:current-layer="Layer_1" /><style
     type="text/css"
     id="style3">
	.st0{fill:#1195CD;}
</style><g
     id="g5"
     transform="matrix(0.97880357,0,0,0.97880357,1.3922707,1.3198664)"><path
       class="st0"
       d="M 19,117.8 C 0,117.8 0,105.2 0,99.8 0,81.8 0,27.6 0,27.6 0.8,11.2 12.6,10.6 16.4,10.4 c 4.5,-0.2 13.3,-0.1 19.8,-0.1 2.5,0 4.7,0.1 6.1,0.1 l 0.9,0 0,0 c 4.4,0 6.8,2.9 7.6,4.5 l 7.7,11 c 4.7,0 20.3,-0.1 34.2,-0.1 10.9,0 17.9,5.8 19.5,16 5.9,0.7 10.2,2.6 12.8,5.8 2.4,2.9 3.3,6.7 2.8,11.5 -1.1,9.4 -5.7,25.6 -9.1,37.5 -0.8,2.8 -1.5,5.4 -2.1,7.5 -3.1,11.5 -9.4,13.3 -15.1,13.6 l -81,0 c -0.4,0.1 -1,0.1 -1.5,0.1 z M 5.4,27.7 c 0,0 0,54 0,72 0,5.7 0,12.7 13.6,12.7 l 1.5,0 81,0 c 3.1,-0.2 7.5,-0.4 10,-9.7 0.6,-2.1 1.3,-4.7 2.1,-7.5 3.3,-11.7 7.9,-27.8 8.9,-36.7 0.4,-3.3 -0.1,-5.7 -1.6,-7.5 -2,-2.3 -5.7,-3.7 -11.3,-4.1 -1.3,-0.1 -2.3,-1.1 -2.5,-2.3 -0.5,-6.4 -3.5,-13.4 -14.4,-13.4 -16.6,0 -35.5,0.2 -35.5,0.2 C 56.2,31.3 55.5,31 55,30.3 L 46.2,17.7 c -0.3,-0.6 -1,-1.8 -2.8,-1.8 l -1.1,0 c -1.4,0 -3.6,0 -6.2,-0.1 C 29.7,15.7 21,15.6 16.6,15.8 11.5,16 5.9,17.2 5.4,27.7 l 0,0 z"
       id="path7"
       inkscape:connector-curvature="0"
       style="fill:#1195cd" /><path
       class="st0"
       d="M 2.7,63 C 2.6,63 2.5,63 2.5,63 1,62.8 -0.1,61.5 0,60 0.6,53.7 5.1,41.7 18.3,41.5 c 14,-0.2 90.8,0 91.6,0 1.5,0 2.7,1.2 2.7,2.7 0,1.5 -1.2,2.7 -2.7,2.7 0,0 0,0 0,0 -0.8,0 -77.5,-0.2 -91.5,0 C 6.7,47 5.4,60 5.3,60.5 5.2,61.9 4.1,63 2.7,63 Z"
       id="path9"
       inkscape:connector-curvature="0"
       style="fill:#1195cd" /></g></svg>