<?xml version="1.0" encoding="utf-8"?>
<!-- Generator: Adobe Illustrator 24.2.3, SVG Export Plug-In . SVG Version: 6.00 Build 0)  -->
<svg version="1.1" id="Layer_1" xmlns="http://www.w3.org/2000/svg" xmlns:xlink="http://www.w3.org/1999/xlink" x="0px" y="0px"
	 viewBox="0 0 128 128" style="enable-background:new 0 0 128 128;" xml:space="preserve">
<style type="text/css">
	.st0{fill:#1195CD;}
</style>
<g>
	<path class="st0" d="M114.4,2H13.6C6.6,2,0.9,7.7,0.9,14.7v98.6c0,7,5.7,12.7,12.7,12.7h100.9c7,0,12.7-5.7,12.7-12.7V14.7
		C127.1,7.7,121.4,2,114.4,2z M13.6,7.6h100.9c3.9,0,7.1,3.2,7.1,7.1v56.5L95.5,45.9c-1.1-1.1-2.8-1.1-3.9,0l-37,35.4L42.3,68.7
		c-1-1.1-2.7-1.1-3.8-0.2L6.5,96V14.7C6.5,10.8,9.7,7.6,13.6,7.6z M6.5,113.3v-9.9l33.7-28.9l12.4,12.8l0,0l0,0l32.1,33.1h-71
		C9.7,120.4,6.5,117.2,6.5,113.3z M114.4,120.4h-22l-33.9-35l35-33.5l28,27.1v34.3C121.5,117.2,118.3,120.4,114.4,120.4z"/>
	<path class="st0" d="M31.6,44.9c7.3,0,13.2-5.9,13.2-13.2s-5.9-13.2-13.2-13.2s-13.2,5.9-13.2,13.2C18.4,39,24.3,44.9,31.6,44.9z
		 M31.6,24.2c4.2,0,7.6,3.4,7.6,7.6s-3.4,7.6-7.6,7.6S24,35.9,24,31.7l0,0C24,27.6,27.4,24.2,31.6,24.2z"/>
</g>
</svg>
