<?xml version="1.0" encoding="utf-8"?>
<!-- Generator: Adobe Illustrator 24.2.3, SVG Export Plug-In . SVG Version: 6.00 Build 0)  -->
<svg version="1.1" id="Layer_1" xmlns="http://www.w3.org/2000/svg" xmlns:xlink="http://www.w3.org/1999/xlink" x="0px" y="0px"
	 viewBox="0 0 128 128" style="enable-background:new 0 0 128 128;" xml:space="preserve">
<style type="text/css">
	.st0{fill:#1195CD;}
</style>
<g>
	<path class="st0" d="M113.8,35.9L113.8,35.9L113.8,35.9L113.8,35.9L113.8,35.9L78.7,0.8l0,0l0,0l0,0l0,0C78.2,0.3,77.6,0,76.8,0
		H27.3c-7.8,0-13.9,6.1-13.9,13.9v100.2c0,7.8,6.1,13.9,13.9,13.9h73.5c7.8,0,13.9-6.1,13.9-13.9V37.8
		C114.6,37,114.4,36.5,113.8,35.9L113.8,35.9z M79.6,9.5l25.6,25.6H82.4c-1.7,0-2.8-1.1-2.8-2.8V9.5z M109.1,114.1
		c0,4.7-3.6,8.3-8.3,8.3H27.3c-4.7,0-8.3-3.6-8.3-8.3V13.9c0-4.7,3.6-8.3,8.3-8.3h47v26.7c0,4.7,3.6,8.3,8.3,8.3h26.7v73.5H109.1z"
		/>
	<path class="st0" d="M33.7,66.8h20c1.7,0,2.8-1.1,2.8-2.8c0-1.7-1.1-2.8-2.8-2.8h-20c-1.7,0-2.8,1.1-2.8,2.8
		C30.9,65.7,32.3,66.8,33.7,66.8z"/>
	<path class="st0" d="M76.8,76.5H33.7c-1.7,0-2.8,1.1-2.8,2.8c0,1.7,1.1,2.8,2.8,2.8h43.1c1.7,0,2.8-1.1,2.8-2.8
		C79.6,77.6,78.5,76.5,76.8,76.5z"/>
</g>
</svg>
