<?xml version="1.0" encoding="UTF-8" standalone="no"?>
<svg
   xmlns:dc="http://purl.org/dc/elements/1.1/"
   xmlns:cc="http://creativecommons.org/ns#"
   xmlns:rdf="http://www.w3.org/1999/02/22-rdf-syntax-ns#"
   xmlns:svg="http://www.w3.org/2000/svg"
   xmlns="http://www.w3.org/2000/svg"
   xml:space="preserve"
   style="enable-background:new 0 0 128 128;"
   viewBox="0 0 128 128"
   y="0px"
   x="0px"
   id="Layer_1"
   version="1.1"><metadata
     id="metadata13"><rdf:RDF><cc:Work
         rdf:about=""><dc:format>image/svg+xml</dc:format><dc:type
           rdf:resource="http://purl.org/dc/dcmitype/StillImage" /><dc:title></dc:title></cc:Work></rdf:RDF></metadata><defs
     id="defs11" /><style
     id="style3"
     type="text/css">
	.st0{fill:#1195CD;}
</style><g
     id="g5"
     transform="translate(0,-952.36218)"><path
       id="path7"
       d="M24.4,969.1C10.9,969.1,0,980.1,0,993.5v45.7c0,13.5,10.9,24.4,24.4,24.4h79.2c13.5,0,24.4-10.9,24.4-24.4   v-45.7c0-13.5-10.9-24.4-24.4-24.4L24.4,969.1L24.4,969.1z M24.4,975.2h79.2c10.2,0,18.3,8.1,18.3,18.3v45.7   c0,10.2-8.1,18.3-18.3,18.3H24.4c-10.2,0-18.3-8.1-18.3-18.3v-45.7C6.1,983.3,14.2,975.2,24.4,975.2L24.4,975.2z M51.6,993.5   c-1.6,0.1-2.8,1.5-2.8,3v39.6c0,1.5,1,2.8,2.5,3c0.7,0.1,1.5,0,2.1-0.4l33.5-19.8c1.5-0.8,2-2.7,1.1-4.2c-0.3-0.5-0.7-0.9-1.1-1.1   l-33.5-19.8C52.8,993.6,52.2,993.5,51.6,993.5z M54.9,1001.9l24.4,14.4l-24.4,14.5V1001.9z"
       class="st0" /></g></svg>