<?xml version="1.0" encoding="UTF-8" standalone="no"?>
<svg
   xmlns:dc="http://purl.org/dc/elements/1.1/"
   xmlns:cc="http://creativecommons.org/ns#"
   xmlns:rdf="http://www.w3.org/1999/02/22-rdf-syntax-ns#"
   xmlns:svg="http://www.w3.org/2000/svg"
   xmlns="http://www.w3.org/2000/svg"
   xml:space="preserve"
   style="enable-background:new 0 0 128 128;"
   viewBox="0 0 128 128"
   y="0px"
   x="0px"
   id="Layer_1"
   version="1.1"><metadata
     id="metadata13"><rdf:RDF><cc:Work
         rdf:about=""><dc:format>image/svg+xml</dc:format><dc:type
           rdf:resource="http://purl.org/dc/dcmitype/StillImage" /><dc:title></dc:title></cc:Work></rdf:RDF></metadata><defs
     id="defs11" /><style
     id="style3"
     type="text/css">
	.st0{fill:#1195CD;}
</style><g
     id="g5"
     transform="matrix(0.80076963,0,0,0.80076963,12.750744,-749.62198)"><path
       style="fill:#1195cd"
       id="path7"
       d="m 51.1,1071.3 c -11.7,11.7 -30.7,11.7 -42.3,0 -11.7,-11.7 -11.7,-30.7 0,-42.3 l 23.5,-23.5 c 11.7,-11.7 30.7,-11.7 42.3,0 2.7,0.5 4.3,4.1 3.9,6.9 -0.5,2.7 -3.1,4.5 -5.8,4.1 -2.1,-0.4 -3.7,-2 -5.1,-3.9 -7.9,-7.9 -20.3,-7.9 -28.2,0 l -23.5,23.5 c -7.9,7.9 -7.9,20.3 0,28.2 7.9,7.9 20.3,7.9 28.2,0 L 66.4,1042 c 1.9,-2 5.1,-2 7.1,-0.1 2,1.9 2,5.1 0.1,7.1 0,0 -0.1,0.1 -0.1,0.1 l -22.4,22.2 0,0 z m 44.6,-44.6 c -11.7,11.7 -30.7,11.7 -42.3,0 -1.9,-1.9 -1.9,-5.1 0,-7.1 1.9,-1.9 5.1,-1.9 7.1,0 0,0 0,0 0,0 7.9,7.9 20.3,7.9 28.2,0 l 23.5,-23.5 c 7.9,-7.9 7.9,-20.3 0,-28.2 -7.9,-7.9 -20.3,-7.9 -28.2,0 l -22.3,22.3 c -1.9,2 -5.1,2 -7.1,0.1 -2,-1.9 -2,-5.1 -0.1,-7.1 0,0 0.1,-0.1 0.1,-0.1 l 22.3,-22.3 c 11.7,-11.7 30.7,-11.7 42.3,0 11.7,11.7 11.7,30.7 0,42.3 l -23.5,23.6 0,0 z"
       class="st0" /></g></svg>