<?xml version="1.0" encoding="utf-8"?>
<!-- Generator: Adobe Illustrator 24.2.3, SVG Export Plug-In . SVG Version: 6.00 Build 0)  -->
<svg version="1.1" id="Layer_1" xmlns="http://www.w3.org/2000/svg" xmlns:xlink="http://www.w3.org/1999/xlink" x="0px" y="0px"
	 viewBox="0 0 128 128" style="enable-background:new 0 0 128 128;" xml:space="preserve">
<style type="text/css">
	.st0{fill:#1195CD;}
</style>
<g transform="translate(0,-952.36218)">
	<path class="st0" d="M51.1,1071.3c-11.7,11.7-30.7,11.7-42.3,0c-11.7-11.7-11.7-30.7,0-42.3l23.5-23.5c11.7-11.7,30.7-11.7,42.3,0
		c2.7,0.5,4.3,4.1,3.9,6.9c-0.5,2.7-3.1,4.5-5.8,4.1c-2.1-0.4-3.7-2-5.1-3.9c-7.9-7.9-20.3-7.9-28.2,0l-23.5,23.5
		c-7.9,7.9-7.9,20.3,0,28.2c7.9,7.9,20.3,7.9,28.2,0l22.3-22.3c1.9-2,5.1-2,7.1-0.1c2,1.9,2,5.1,0.1,7.1c0,0-0.1,0.1-0.1,0.1
		L51.1,1071.3L51.1,1071.3z M95.7,1026.7c-11.7,11.7-30.7,11.7-42.3,0c-1.9-1.9-1.9-5.1,0-7.1c1.9-1.9,5.1-1.9,7.1,0c0,0,0,0,0,0
		c7.9,7.9,20.3,7.9,28.2,0l23.5-23.5c7.9-7.9,7.9-20.3,0-28.2c-7.9-7.9-20.3-7.9-28.2,0l-22.3,22.3c-1.9,2-5.1,2-7.1,0.1
		c-2-1.9-2-5.1-0.1-7.1c0,0,0.1-0.1,0.1-0.1l22.3-22.3c11.7-11.7,30.7-11.7,42.3,0c11.7,11.7,11.7,30.7,0,42.3L95.7,1026.7
		L95.7,1026.7z"/>
</g>
</svg>
