<?xml version="1.0" encoding="UTF-8" standalone="no"?>
<!-- Generator: Adobe Illustrator 24.2.3, SVG Export Plug-In . SVG Version: 6.00 Build 0)  -->

<svg
   xmlns:dc="http://purl.org/dc/elements/1.1/"
   xmlns:cc="http://creativecommons.org/ns#"
   xmlns:rdf="http://www.w3.org/1999/02/22-rdf-syntax-ns#"
   xmlns:svg="http://www.w3.org/2000/svg"
   xmlns="http://www.w3.org/2000/svg"
   xmlns:sodipodi="http://sodipodi.sourceforge.net/DTD/sodipodi-0.dtd"
   xmlns:inkscape="http://www.inkscape.org/namespaces/inkscape"
   version="1.1"
   id="Layer_1"
   x="0px"
   y="0px"
   viewBox="0 0 128 128"
   style="enable-background:new 0 0 128 128;"
   xml:space="preserve"
   inkscape:version="0.91 r13725"
   sodipodi:docname="icon.svg"><metadata
     id="metadata13"><rdf:RDF><cc:Work
         rdf:about=""><dc:format>image/svg+xml</dc:format><dc:type
           rdf:resource="http://purl.org/dc/dcmitype/StillImage" /></cc:Work></rdf:RDF></metadata><defs
     id="defs11" /><sodipodi:namedview
     pagecolor="#ffffff"
     bordercolor="#666666"
     borderopacity="1"
     objecttolerance="10"
     gridtolerance="10"
     guidetolerance="10"
     inkscape:pageopacity="0"
     inkscape:pageshadow="2"
     inkscape:window-width="1857"
     inkscape:window-height="1056"
     id="namedview9"
     showgrid="false"
     inkscape:zoom="1.84375"
     inkscape:cx="64"
     inkscape:cy="64"
     inkscape:window-x="63"
     inkscape:window-y="24"
     inkscape:window-maximized="1"
     inkscape:current-layer="Layer_1" /><style
     type="text/css"
     id="style3">
	.st0{fill:#1195CD;}
</style><g
     transform="matrix(0.80076963,0,0,0.80076963,12.750744,-749.62198)"
     id="g5"><path
       class="st0"
       d="m 51.1,1071.3 c -11.7,11.7 -30.7,11.7 -42.3,0 -11.7,-11.7 -11.7,-30.7 0,-42.3 l 23.5,-23.5 c 11.7,-11.7 30.7,-11.7 42.3,0 2.7,0.5 4.3,4.1 3.9,6.9 -0.5,2.7 -3.1,4.5 -5.8,4.1 -2.1,-0.4 -3.7,-2 -5.1,-3.9 -7.9,-7.9 -20.3,-7.9 -28.2,0 l -23.5,23.5 c -7.9,7.9 -7.9,20.3 0,28.2 7.9,7.9 20.3,7.9 28.2,0 L 66.4,1042 c 1.9,-2 5.1,-2 7.1,-0.1 2,1.9 2,5.1 0.1,7.1 0,0 -0.1,0.1 -0.1,0.1 l -22.4,22.2 0,0 z m 44.6,-44.6 c -11.7,11.7 -30.7,11.7 -42.3,0 -1.9,-1.9 -1.9,-5.1 0,-7.1 1.9,-1.9 5.1,-1.9 7.1,0 0,0 0,0 0,0 7.9,7.9 20.3,7.9 28.2,0 l 23.5,-23.5 c 7.9,-7.9 7.9,-20.3 0,-28.2 -7.9,-7.9 -20.3,-7.9 -28.2,0 l -22.3,22.3 c -1.9,2 -5.1,2 -7.1,0.1 -2,-1.9 -2,-5.1 -0.1,-7.1 0,0 0.1,-0.1 0.1,-0.1 l 22.3,-22.3 c 11.7,-11.7 30.7,-11.7 42.3,0 11.7,11.7 11.7,30.7 0,42.3 l -23.5,23.6 0,0 z"
       id="path7"
       inkscape:connector-curvature="0"
       style="fill:#1195cd" /></g></svg>