<?xml version="1.0" encoding="utf-8"?>
<!-- Generator: Adobe Illustrator 24.2.3, SVG Export Plug-In . SVG Version: 6.00 Build 0)  -->
<svg version="1.1" id="Layer_1" xmlns="http://www.w3.org/2000/svg" xmlns:xlink="http://www.w3.org/1999/xlink" x="0px" y="0px"
	 viewBox="0 0 128 128" style="enable-background:new 0 0 128 128;" xml:space="preserve">
<style type="text/css">
	.st0{fill:#1195CD;}
</style>
<g>
	<path class="st0" d="M115,89.4c9.9-18.7,2.8-41.9-15.9-51.9c-5.6-2.9-11.7-4.5-18-4.5c-1.2,0-2.5,0.1-3.7,0.2
		C64.6,16.4,40.5,13.1,23.6,26C8.7,37.4,4.2,57.9,13,74.4L0.7,84.8c-0.9,0.8-1,2.1-0.2,3c0.4,0.5,1,0.7,1.6,0.7h23.6
		c6.3,4.2,13.7,6.4,21.2,6.4c1.2,0,2.5-0.1,3.7-0.2c12.2,16.1,34.8,19.9,51.7,8.7h23.6c1.2,0,2.1-1,2.1-2.1c0-0.6-0.3-1.2-0.8-1.6
		L115,89.4z M46.9,90.7c-6.9,0-13.7-2.1-19.3-6c-0.4-0.2-0.8-0.4-1.2-0.4H8l9.1-7.7c0.8-0.7,1-1.8,0.5-2.7
		c-9.6-16.2-4.2-37.1,12-46.7c14.1-8.4,32.2-5.5,43,6.9c-20.6,4.6-33.6,25.1-29,45.8c0.9,3.8,2.3,7.4,4.2,10.8
		C47.5,90.6,47.2,90.7,46.9,90.7z M52.5,90.2c-10.3-15.7-6-36.8,9.7-47.2c4-2.6,8.5-4.4,13.2-5.2c10.3,15.7,6,36.8-9.7,47.2
		C61.7,87.6,57.2,89.4,52.5,90.2z M101.6,99.2c-0.4,0-0.9,0.1-1.2,0.4c-14.2,9.8-33.6,7.4-45-5.6c20.6-4.6,33.6-25.1,29-45.8
		c-0.9-3.8-2.3-7.4-4.2-10.8c0.3,0,0.6,0,0.9,0c18.8,0,34.1,15.2,34.1,34c0,6.1-1.6,12.1-4.8,17.4c-0.5,0.9-0.3,2,0.5,2.7l9.1,7.7
		H101.6z"/>
	<rect x="61.9" y="60.8" class="st0" width="4.3" height="4.3"/>
	<rect x="53.3" y="60.8" class="st0" width="4.3" height="4.3"/>
	<rect x="70.4" y="60.8" class="st0" width="4.3" height="4.3"/>
</g>
</svg>
