<?xml version="1.0" encoding="UTF-8" standalone="no"?>
<!-- Generator: Adobe Illustrator 24.2.3, SVG Export Plug-In . SVG Version: 6.00 Build 0)  -->

<svg
   xmlns:dc="http://purl.org/dc/elements/1.1/"
   xmlns:cc="http://creativecommons.org/ns#"
   xmlns:rdf="http://www.w3.org/1999/02/22-rdf-syntax-ns#"
   xmlns:svg="http://www.w3.org/2000/svg"
   xmlns="http://www.w3.org/2000/svg"
   xmlns:sodipodi="http://sodipodi.sourceforge.net/DTD/sodipodi-0.dtd"
   xmlns:inkscape="http://www.inkscape.org/namespaces/inkscape"
   version="1.1"
   id="Layer_1"
   x="0px"
   y="0px"
   viewBox="0 0 128 128"
   style="enable-background:new 0 0 128 128;"
   xml:space="preserve"
   inkscape:version="0.91 r13725"
   sodipodi:docname="icon.svg"><metadata
     id="metadata19"><rdf:RDF><cc:Work
         rdf:about=""><dc:format>image/svg+xml</dc:format><dc:type
           rdf:resource="http://purl.org/dc/dcmitype/StillImage" /></cc:Work></rdf:RDF></metadata><defs
     id="defs17" /><sodipodi:namedview
     pagecolor="#ffffff"
     bordercolor="#666666"
     borderopacity="1"
     objecttolerance="10"
     gridtolerance="10"
     guidetolerance="10"
     inkscape:pageopacity="0"
     inkscape:pageshadow="2"
     inkscape:window-width="1857"
     inkscape:window-height="1056"
     id="namedview15"
     showgrid="false"
     inkscape:zoom="1.84375"
     inkscape:cx="64"
     inkscape:cy="64"
     inkscape:window-x="63"
     inkscape:window-y="24"
     inkscape:window-maximized="1"
     inkscape:current-layer="Layer_1" /><style
     type="text/css"
     id="style3">
	.st0{fill:#1195CD;}
</style><g
     id="g5"
     style="stroke:#1195cd;stroke-opacity:1;stroke-width:2.04293652;stroke-miterlimit:4;stroke-dasharray:none"
     transform="matrix(0.97898294,0,0,0.97898294,1.3605373,1.376092)"><path
       class="st0"
       d="M 115,89.4 C 124.9,70.7 117.8,47.5 99.1,37.5 93.5,34.6 87.4,33 81.1,33 79.9,33 78.6,33.1 77.4,33.2 64.6,16.4 40.5,13.1 23.6,26 8.7,37.4 4.2,57.9 13,74.4 L 0.7,84.8 c -0.9,0.8 -1,2.1 -0.2,3 0.4,0.5 1,0.7 1.6,0.7 l 23.6,0 c 6.3,4.2 13.7,6.4 21.2,6.4 1.2,0 2.5,-0.1 3.7,-0.2 12.2,16.1 34.8,19.9 51.7,8.7 l 23.6,0 c 1.2,0 2.1,-1 2.1,-2.1 0,-0.6 -0.3,-1.2 -0.8,-1.6 L 115,89.4 Z m -68.1,1.3 c -6.9,0 -13.7,-2.1 -19.3,-6 -0.4,-0.2 -0.8,-0.4 -1.2,-0.4 l -18.4,0 9.1,-7.7 c 0.8,-0.7 1,-1.8 0.5,-2.7 C 8,57.7 13.4,36.8 29.6,27.2 43.7,18.8 61.8,21.7 72.6,34.1 52,38.7 39,59.2 43.6,79.9 c 0.9,3.8 2.3,7.4 4.2,10.8 -0.3,-0.1 -0.6,0 -0.9,0 z m 5.6,-0.5 C 42.2,74.5 46.5,53.4 62.2,43 c 4,-2.6 8.5,-4.4 13.2,-5.2 10.3,15.7 6,36.8 -9.7,47.2 -4,2.6 -8.5,4.4 -13.2,5.2 z m 49.1,9 c -0.4,0 -0.9,0.1 -1.2,0.4 C 86.2,109.4 66.8,107 55.4,94 76,89.4 89,68.9 84.4,48.2 83.5,44.4 82.1,40.8 80.2,37.4 c 0.3,0 0.6,0 0.9,0 18.8,0 34.1,15.2 34.1,34 0,6.1 -1.6,12.1 -4.8,17.4 -0.5,0.9 -0.3,2 0.5,2.7 l 9.1,7.7 -18.4,0 z"
       id="path7"
       style="fill:#1195cd;stroke:#1195cd;stroke-opacity:1;stroke-width:2.04293652;stroke-miterlimit:4;stroke-dasharray:none"
       inkscape:connector-curvature="0" /><rect
       x="61.900002"
       y="60.799999"
       class="st0"
       width="4.3000002"
       height="4.3000002"
       id="rect9"
       style="fill:#1195cd;stroke:#1195cd;stroke-opacity:1;stroke-width:2.04293652;stroke-miterlimit:4;stroke-dasharray:none" /><rect
       x="53.299999"
       y="60.799999"
       class="st0"
       width="4.3000002"
       height="4.3000002"
       id="rect11"
       style="fill:#1195cd;stroke:#1195cd;stroke-opacity:1;stroke-width:2.04293652;stroke-miterlimit:4;stroke-dasharray:none" /><rect
       x="70.400002"
       y="60.799999"
       class="st0"
       width="4.3000002"
       height="4.3000002"
       id="rect13"
       style="fill:#1195cd;stroke:#1195cd;stroke-opacity:1;stroke-width:2.04293652;stroke-miterlimit:4;stroke-dasharray:none" /></g></svg>