<?xml version="1.0" encoding="utf-8"?>
<!-- Generator: Adobe Illustrator 24.2.3, SVG Export Plug-In . SVG Version: 6.00 Build 0)  -->
<svg version="1.1" id="Layer_1" xmlns="http://www.w3.org/2000/svg" xmlns:xlink="http://www.w3.org/1999/xlink" x="0px" y="0px"
	 viewBox="0 0 128 128" style="enable-background:new 0 0 128 128;" xml:space="preserve">
<style type="text/css">
	.st0{fill:#1195CD;}
</style>
<g>
	<circle class="st0" cx="64" cy="121.6" r="6.4"/>
	<path class="st0" d="M66.1,110.9h-4.3v-5.5c0-5.3,2.8-10.2,7.5-12.8c4.7-2.6,7.5-7.7,7.5-13v-2.8C76.8,69.8,71,64,64,64
		s-12.8,5.8-12.8,12.8v2.1h-4.3v-2.1c0-9.4,7.7-17.1,17.1-17.1s17.1,7.7,17.1,17.1v3c0,6.8-3.6,13.2-9.6,16.6
		c-3.4,1.7-5.3,5.3-5.3,9V110.9z"/>
	<path class="st0" d="M64,0C38.2,0,17.1,21.1,17.1,46.9c0,18.6,10.9,34.6,26.5,42.2c-0.6-2.1-0.9-3.8-0.9-3.8v-1.5
		c-3-1.7-6-3.8-8.5-6.4c2.8-0.9,5.5-1.7,8.5-2.3c0.2-3.8,1.7-7.5,3.6-10.5c-0.9-4.9-1.3-10.2-1.5-15.6h38.4
		c-0.2,5.5-0.6,10.9-1.5,15.6c2.1,3,3.4,6.6,3.6,10.5c2.8,0.6,5.5,1.5,8.5,2.3c-2.6,2.3-5.3,4.5-8.3,6.4v1.5c0,0,0,1.7-0.9,3.8
		c15.6-7.7,26.2-23.7,26.2-42.2C110.9,21.1,89.8,0,64,0z M64,4.3c6.8,0,11.9,6.4,15.1,15.8c-10,1.7-20.3,1.7-30.3,0
		c0.4-1.1,0.9-2.1,1.1-3C52.5,11.1,56.7,4.3,64,4.3z M31.1,19.8c4.1,1.5,8.1,2.6,12.2,3.4c-1.7,6.4-2.6,13.9-2.8,21.5H21.3
		C22,35.4,25.4,26.7,31.1,19.8z M31.1,74c-5.8-6.8-9.2-15.6-9.6-25h19.2c0.2,7.5,1.1,14.9,2.8,21.5C39.3,71.5,35.2,72.7,31.1,74z
		 M44.6,19.2c-3.4-0.6-6.8-1.7-10.2-2.8C39.3,11.7,45,8.1,51.6,6.2c-2.1,2.3-3.8,5.5-5.5,9.2C45.4,16.4,45,17.9,44.6,19.2z
		 M44.8,44.8c0.2-7.5,1.1-14.5,2.8-20.7c5.5,1.1,10.9,1.5,16.4,1.5c5.5,0,10.9-0.4,16.4-1.5c1.7,6.2,2.6,13.4,2.8,20.7H44.8z
		 M76.4,6.2C83,8.1,89,11.7,93.7,16.4c-3.4,1.1-6.8,2.1-10.2,2.8C81.7,14.1,79.4,9.4,76.4,6.2z M96.9,19.8c5.8,6.8,9.2,15.6,9.6,25
		H87.3c-0.2-7.5-1.1-14.9-2.8-21.5C88.7,22.4,92.8,21.1,96.9,19.8z M96.9,74c-4.1-1.5-8.1-2.6-12.2-3.4c1.7-6.4,2.6-13.9,2.8-21.5
		h19.2C106,58.5,102.6,67.2,96.9,74z"/>
</g>
</svg>
