<?xml version="1.0" encoding="utf-8"?>
<!-- Generator: Adobe Illustrator 24.2.3, SVG Export Plug-In . SVG Version: 6.00 Build 0)  -->
<svg version="1.1" id="Layer_1" xmlns="http://www.w3.org/2000/svg" xmlns:xlink="http://www.w3.org/1999/xlink" x="0px" y="0px"
	 viewBox="0 0 128 128" style="enable-background:new 0 0 128 128;" xml:space="preserve">
<style type="text/css">
	.st0{fill:#1195CD;}
</style>
<path class="st0" d="M125.1,2.7c-2.3-2.3-5.5-3.3-8.7-2.8L75,6.3c-1.9,0.3-3.6,1.2-4.9,2.5L0.8,78.1c-1,1-1,2.6,0,3.6L46.1,127
	c1,1,2.6,1,3.6,0L119,57.7c1.3-1.3,2.2-3.1,2.5-4.9l6.4-41.4C128.4,8.2,127.4,5,125.1,2.7z M122.8,10.6L116.5,52
	c-0.1,0.8-0.5,1.5-1.1,2.1l-67.5,67.5L6.2,79.9l67.5-67.5c0.6-0.6,1.3-0.9,2.1-1.1L117.2,5c2.7-0.4,5.3,1.4,5.7,4.2
	C122.9,9.6,122.9,10.1,122.8,10.6L122.8,10.6z"/>
<rect x="39.3" y="67.5" transform="matrix(0.7071 -0.7071 0.7071 0.7071 -48.4647 54.79)" class="st0" width="5.1" height="36.7"/>
<rect x="50.7" y="56.2" transform="matrix(0.7071 -0.7071 0.7071 0.7071 -37.152 59.4759)" class="st0" width="5.1" height="36.7"/>
<path class="st0" d="M96.9,16.2c-4.1,4.1-4.1,10.6,0,14.7c4.1,4.1,10.6,4.1,14.7,0c4.1-4.1,4.1-10.6,0-14.7
	C107.5,12.2,101,12.2,96.9,16.2z M108,27.3c-2.1,2.1-5.4,2.1-7.4,0c-2.1-2.1-2.1-5.4,0-7.4c2.1-2.1,5.4-2.1,7.4,0c0,0,0,0,0,0
	C110,21.9,110,25.2,108,27.3z"/>
</svg>
