<?xml version="1.0" encoding="utf-8"?>
<!-- Generator: Adobe Illustrator 24.2.3, SVG Export Plug-In . SVG Version: 6.00 Build 0)  -->
<svg version="1.1" id="Layer_1" xmlns="http://www.w3.org/2000/svg" xmlns:xlink="http://www.w3.org/1999/xlink" x="0px" y="0px"
	 viewBox="0 0 128 128" style="enable-background:new 0 0 128 128;" xml:space="preserve">
<style type="text/css">
	.st0{fill:#1195CD;}
</style>
<g>
	<path class="st0" d="M92.9,71.5c-1.5,0-2.9,0.4-4.1,1c-1.4-3.3-4.7-5.6-8.5-5.6c-1.4,0-2.8,0.3-4,0.9c-1.4-3.4-4.7-5.9-8.6-5.9
		c-1.2,0-2.3,0.2-3.3,0.6V50.4c0-5.1-4.2-9.3-9.3-9.3s-9.3,4.2-9.3,9.3v39.4c-3-1.6-6.4-2.5-9.8-2.5h-2.8c-4.2,0-7.6,3.4-7.6,7.6
		c0,2.5,1.2,4.8,3.3,6.2l3.9,2.7c5.1,3.5,9.2,8.3,11.8,13.9c2.9,6.3,9.4,10.4,16.3,10.4h23.3c9.9,0,18-8.1,18-18V80.8
		C102.2,75.7,98,71.5,92.9,71.5z M96.2,110c0,6.6-5.4,12-12,12H60.9c-4.7,0-8.9-2.7-10.9-6.9c-3.1-6.6-7.8-12.2-13.8-16.3l-3.9-2.7
		c-0.4-0.3-0.7-0.8-0.7-1.3c0-0.9,0.7-1.6,1.6-1.6h2.8c3.1,0,6.2,1,8.6,2.9l2.3,1.8c0.9,0.7,2.1,0.8,3.1,0.3c1-0.5,1.7-1.5,1.7-2.7
		V50.4c0-1.8,1.5-3.3,3.3-3.3s3.3,1.5,3.3,3.3v20.8v17.6c0,1.6,1.3,3,3,3c1.6,0,3-1.3,3-3V71.2c0-1.8,1.5-3.3,3.3-3.3
		c1.8,0,3.3,1.5,3.3,3.3v5v12.7c0,1.6,1.3,3,3,3s3-1.3,3-3V76.1c0-1.8,1.5-3.3,3.3-3.3s3.3,1.5,3.3,3.3v4.7v8c0,1.6,1.3,3,3,3
		c1.6,0,3-1.3,3-3v-8c0-1.8,1.5-3.3,3.3-3.3c1.8,0,3.3,1.5,3.3,3.3L96.2,110L96.2,110z"/>
	<path class="st0" d="M109,34.2c-5.1,0-9.8,2-13.2,5.3l-15-11.4c1.4-2.7,2.2-5.7,2.2-9C83,8.6,74.4,0,63.9,0
		C53.3,0,44.7,8.6,44.7,19.2c0,3.3,0.8,6.4,2.3,9.1L32.2,39.5c-3.4-3.3-8.1-5.3-13.2-5.3c-10.6,0-19.2,8.6-19.2,19.2
		c0,10.6,8.6,19.2,19.2,19.2s19.2-8.6,19.2-19.2c0-3.3-0.8-6.4-2.3-9.1L50.6,33c3.4,3.3,8.1,5.3,13.2,5.3c5.2,0,9.9-2.1,13.3-5.4
		l15,11.4c-1.5,2.7-2.3,5.8-2.3,9.1c0,10.6,8.6,19.2,19.2,19.2s19.2-8.6,19.2-19.2C128.2,42.8,119.6,34.2,109,34.2z M19,66.6
		c-7.3,0-13.2-5.9-13.2-13.2S11.7,40.2,19,40.2s13.2,5.9,13.2,13.2S26.2,66.6,19,66.6z M63.9,32.3c-7.3,0-13.2-5.9-13.2-13.2
		S56.6,6,63.9,6s13.2,5.9,13.2,13.2S71.1,32.3,63.9,32.3z M109,66.6c-7.3,0-13.2-5.9-13.2-13.2s5.9-13.2,13.2-13.2
		s13.2,5.9,13.2,13.2S116.3,66.6,109,66.6z"/>
</g>
</svg>
