<?xml version="1.0" encoding="UTF-8" standalone="no"?>
<!-- Generator: Adobe Illustrator 24.2.3, SVG Export Plug-In . SVG Version: 6.00 Build 0)  -->

<svg
   xmlns:dc="http://purl.org/dc/elements/1.1/"
   xmlns:cc="http://creativecommons.org/ns#"
   xmlns:rdf="http://www.w3.org/1999/02/22-rdf-syntax-ns#"
   xmlns:svg="http://www.w3.org/2000/svg"
   xmlns="http://www.w3.org/2000/svg"
   xmlns:sodipodi="http://sodipodi.sourceforge.net/DTD/sodipodi-0.dtd"
   xmlns:inkscape="http://www.inkscape.org/namespaces/inkscape"
   version="1.1"
   id="Layer_1"
   x="0px"
   y="0px"
   viewBox="0 0 128 128"
   style="enable-background:new 0 0 128 128;"
   xml:space="preserve"
   inkscape:version="0.91 r13725"
   sodipodi:docname="icon.svg"><metadata
     id="metadata21"><rdf:RDF><cc:Work
         rdf:about=""><dc:format>image/svg+xml</dc:format><dc:type
           rdf:resource="http://purl.org/dc/dcmitype/StillImage" /></cc:Work></rdf:RDF></metadata><defs
     id="defs19" /><sodipodi:namedview
     pagecolor="#ffffff"
     bordercolor="#666666"
     borderopacity="1"
     objecttolerance="10"
     gridtolerance="10"
     guidetolerance="10"
     inkscape:pageopacity="0"
     inkscape:pageshadow="2"
     inkscape:window-width="1857"
     inkscape:window-height="1056"
     id="namedview17"
     showgrid="false"
     inkscape:zoom="1.84375"
     inkscape:cx="64"
     inkscape:cy="64"
     inkscape:window-x="63"
     inkscape:window-y="24"
     inkscape:window-maximized="1"
     inkscape:current-layer="Layer_1" /><style
     type="text/css"
     id="style3">
	.st0{fill:#1195CD;}
</style><g
     id="g5"
     style="stroke:#1195cd;stroke-width:1.02131912;stroke-miterlimit:4;stroke-dasharray:none;stroke-opacity:1"
     transform="matrix(0.9791259,0,0,0.9791259,1.3774237,1.3359424)"><path
       class="st0"
       d="m 64,85.6 c 9.8,0 17.9,-8 17.9,-17.9 0,-9.9 -8,-17.9 -17.9,-17.9 -9.8,0 -17.9,8 -17.9,17.9 0,9.9 8.1,17.9 17.9,17.9 z m 0,-31.3 c 7.4,0 13.4,6 13.4,13.4 0,7.4 -6,13.4 -13.4,13.4 -7.4,0 -13.4,-6 -13.4,-13.4 0,-7.4 6,-13.4 13.4,-13.4 z"
       id="path7"
       style="fill:#1195cd;stroke:#1195cd;stroke-width:1.02131912;stroke-miterlimit:4;stroke-dasharray:none;stroke-opacity:1"
       inkscape:connector-curvature="0" /><path
       class="st0"
       d="m 86.3,76.7 c 0,7.4 6,13.4 13.4,13.4 7.4,0 13.4,-6 13.4,-13.4 0,-7.4 -6,-13.4 -13.4,-13.4 -7.4,0 -13.4,6 -13.4,13.4 z m 22.4,0 c 0,4.9 -4,8.9 -8.9,8.9 -4.9,0 -8.9,-4 -8.9,-8.9 0,-4.9 4,-8.9 8.9,-8.9 4.8,-0.1 8.9,3.9 8.9,8.9 z"
       id="path9"
       style="fill:#1195cd;stroke:#1195cd;stroke-width:1.02131912;stroke-miterlimit:4;stroke-dasharray:none;stroke-opacity:1"
       inkscape:connector-curvature="0" /><path
       class="st0"
       d="m 126.7,108.8 c -6.1,-8.9 -16.2,-14.2 -27,-14.2 -4.5,0 -9,1 -13.2,2.8 -6.5,-4.7 -14.4,-7.3 -22.6,-7.3 -8.2,0 -16,2.6 -22.6,7.3 -4.1,-1.8 -8.6,-2.8 -13.2,-2.8 -10.8,0 -20.8,5.3 -27,14.2 C 0.4,110 0,111.5 0,112.9 l 0,1.7 c 0,3.7 3,6.7 6.7,6.7 l 30.5,0 2.2,0 49.1,0 2.2,0 30.5,0 c 3.7,0 6.7,-3 6.7,-6.7 l 0,-1.7 c 0.1,-1.4 -0.3,-2.9 -1.2,-4.1 z m -95.8,8.1 -24.2,0 c -1.2,0 -2.2,-1 -2.2,-2.2 l 0,-1.7 c 0,-0.6 0.2,-1.2 0.5,-1.6 5.3,-7.8 14,-12.4 23.3,-12.4 3.1,0 6.3,0.5 9.3,1.6 -2,1.9 -3.9,4 -5.6,6.4 -1,1.4 -1.5,3.1 -1.5,4.7 l 0,2.9 c 0,0.8 0.2,1.6 0.4,2.3 z M 93,114.6 c 0,1.2 -1,2.2 -2.2,2.2 l -2.2,0 -49.2,0 -2.2,0 c -1.2,0 -2.2,-1 -2.2,-2.2 l 0,-2.9 c 0,-0.8 0.2,-1.6 0.7,-2.2 6.5,-9.4 17.1,-14.9 28.3,-14.9 11.3,0 21.9,5.6 28.3,14.9 0.5,0.7 0.7,1.5 0.7,2.3 l 0,2.8 z m 30.5,0 c 0,1.2 -1,2.2 -2.2,2.2 l -24.2,0 c 0.3,-0.7 0.4,-1.4 0.4,-2.2 l 0,-2.9 c 0,-1.7 -0.5,-3.3 -1.5,-4.8 -1.6,-2.3 -3.5,-4.4 -5.5,-6.3 3,-1 6.1,-1.6 9.2,-1.6 9.3,0 18,4.6 23.3,12.3 0.3,0.5 0.5,1.1 0.5,1.7 l 0,1.6 z"
       id="path11"
       style="fill:#1195cd;stroke:#1195cd;stroke-width:1.02131912;stroke-miterlimit:4;stroke-dasharray:none;stroke-opacity:1"
       inkscape:connector-curvature="0" /><path
       class="st0"
       d="m 28.3,90.1 c 7.4,0 13.4,-6 13.4,-13.4 0,-7.4 -6,-13.4 -13.4,-13.4 -7.4,0 -13.4,6 -13.4,13.4 0,7.4 6,13.4 13.4,13.4 z m 0,-22.4 c 4.9,0 8.9,4 8.9,8.9 0,4.9 -4,8.9 -8.9,8.9 -4.9,0 -8.9,-4 -8.9,-8.9 0,-4.9 4,-8.9 8.9,-8.9 z"
       id="path13"
       style="fill:#1195cd;stroke:#1195cd;stroke-width:1.02131912;stroke-miterlimit:4;stroke-dasharray:none;stroke-opacity:1"
       inkscape:connector-curvature="0" /><path
       class="st0"
       d="m 71.4,47.7 c 0.2,0 0.5,0 0.7,-0.1 l 10.1,-3.4 c 3.7,1.8 8,2.7 12.3,2.7 13.5,0 24.6,-9 24.6,-20.1 0,-11.1 -11,-20.1 -24.6,-20.1 -13.6,0 -24.5,9 -24.5,20.1 0,2.9 0.8,5.8 2.4,8.5 l -3.1,9.4 c -0.3,0.8 -0.1,1.7 0.5,2.3 0.5,0.4 1.1,0.7 1.6,0.7 z M 94.6,11.1 c 11.1,0 20.1,7 20.1,15.6 0,8.6 -9,15.6 -20.1,15.6 -3.9,0 -7.7,-0.9 -11.1,-2.6 -0.3,-0.2 -0.7,-0.3 -1,-0.3 -0.2,0 -0.5,0 -0.7,0.1 l -6.8,2.4 2,-6.2 c 0.2,-0.6 0.1,-1.4 -0.3,-1.9 -1.5,-2.3 -2.3,-4.7 -2.3,-7 0.1,-8.6 9.1,-15.7 20.2,-15.7 z"
       id="path15"
       style="fill:#1195cd;stroke:#1195cd;stroke-width:1.02131912;stroke-miterlimit:4;stroke-dasharray:none;stroke-opacity:1"
       inkscape:connector-curvature="0" /></g></svg>