<?xml version="1.0" encoding="utf-8"?>
<!-- Generator: Adobe Illustrator 24.2.3, SVG Export Plug-In . SVG Version: 6.00 Build 0)  -->
<svg version="1.1" id="Layer_1" xmlns="http://www.w3.org/2000/svg" xmlns:xlink="http://www.w3.org/1999/xlink" x="0px" y="0px"
	 viewBox="0 0 128 128" style="enable-background:new 0 0 128 128;" xml:space="preserve">
<style type="text/css">
	.st0{fill:#1195CD;}
</style>
<g>
	<path class="st0" d="M64,85.6c9.8,0,17.9-8,17.9-17.9s-8-17.9-17.9-17.9c-9.8,0-17.9,8-17.9,17.9S54.2,85.6,64,85.6z M64,54.3
		c7.4,0,13.4,6,13.4,13.4s-6,13.4-13.4,13.4c-7.4,0-13.4-6-13.4-13.4S56.6,54.3,64,54.3z"/>
	<path class="st0" d="M86.3,76.7c0,7.4,6,13.4,13.4,13.4s13.4-6,13.4-13.4c0-7.4-6-13.4-13.4-13.4S86.3,69.3,86.3,76.7z M108.7,76.7
		c0,4.9-4,8.9-8.9,8.9c-4.9,0-8.9-4-8.9-8.9c0-4.9,4-8.9,8.9-8.9C104.6,67.7,108.7,71.7,108.7,76.7z"/>
	<path class="st0" d="M126.7,108.8c-6.1-8.9-16.2-14.2-27-14.2c-4.5,0-9,1-13.2,2.8c-6.5-4.7-14.4-7.3-22.6-7.3
		c-8.2,0-16,2.6-22.6,7.3c-4.1-1.8-8.6-2.8-13.2-2.8c-10.8,0-20.8,5.3-27,14.2C0.4,110,0,111.5,0,112.9l0,1.7c0,3.7,3,6.7,6.7,6.7
		h30.5h2.2h49.1h2.2h30.5c3.7,0,6.7-3,6.7-6.7v-1.7C128,111.5,127.6,110,126.7,108.8z M30.9,116.9H6.7c-1.2,0-2.2-1-2.2-2.2v-1.7
		c0-0.6,0.2-1.2,0.5-1.6C10.3,103.6,19,99,28.3,99c3.1,0,6.3,0.5,9.3,1.6c-2,1.9-3.9,4-5.6,6.4c-1,1.4-1.5,3.1-1.5,4.7v2.9
		C30.5,115.4,30.7,116.2,30.9,116.9z M93,114.6c0,1.2-1,2.2-2.2,2.2h-2.2H39.4h-2.2c-1.2,0-2.2-1-2.2-2.2v-2.9
		c0-0.8,0.2-1.6,0.7-2.2c6.5-9.4,17.1-14.9,28.3-14.9c11.3,0,21.9,5.6,28.3,14.9c0.5,0.7,0.7,1.5,0.7,2.3V114.6z M123.5,114.6
		c0,1.2-1,2.2-2.2,2.2H97.1c0.3-0.7,0.4-1.4,0.4-2.2v-2.9c0-1.7-0.5-3.3-1.5-4.8c-1.6-2.3-3.5-4.4-5.5-6.3c3-1,6.1-1.6,9.2-1.6
		c9.3,0,18,4.6,23.3,12.3c0.3,0.5,0.5,1.1,0.5,1.7L123.5,114.6z"/>
	<path class="st0" d="M28.3,90.1c7.4,0,13.4-6,13.4-13.4c0-7.4-6-13.4-13.4-13.4s-13.4,6-13.4,13.4C14.9,84.1,20.9,90.1,28.3,90.1z
		 M28.3,67.7c4.9,0,8.9,4,8.9,8.9c0,4.9-4,8.9-8.9,8.9s-8.9-4-8.9-8.9C19.4,71.7,23.4,67.7,28.3,67.7z"/>
	<path class="st0" d="M71.4,47.7c0.2,0,0.5,0,0.7-0.1l10.1-3.4c3.7,1.8,8,2.7,12.3,2.7c13.5,0,24.6-9,24.6-20.1
		c0-11.1-11-20.1-24.6-20.1S70,15.7,70,26.8c0,2.9,0.8,5.8,2.4,8.5l-3.1,9.4c-0.3,0.8-0.1,1.7,0.5,2.3
		C70.3,47.4,70.9,47.7,71.4,47.7z M94.6,11.1c11.1,0,20.1,7,20.1,15.6s-9,15.6-20.1,15.6c-3.9,0-7.7-0.9-11.1-2.6
		c-0.3-0.2-0.7-0.3-1-0.3c-0.2,0-0.5,0-0.7,0.1L75,41.9l2-6.2c0.2-0.6,0.1-1.4-0.3-1.9c-1.5-2.3-2.3-4.7-2.3-7
		C74.5,18.2,83.5,11.1,94.6,11.1z"/>
</g>
</svg>
