<?xml version="1.0" encoding="utf-8"?>
<!-- Generator: Adobe Illustrator 24.2.3, SVG Export Plug-In . SVG Version: 6.00 Build 0)  -->
<svg version="1.1" id="Layer_1" xmlns="http://www.w3.org/2000/svg" xmlns:xlink="http://www.w3.org/1999/xlink" x="0px" y="0px"
	 viewBox="0 0 128 128" style="enable-background:new 0 0 128 128;" xml:space="preserve">
<style type="text/css">
	.st0{fill:#1195CD;}
</style>
<path class="st0" d="M79.6,116c-1.5,0-3-0.6-4-1.7c-0.1-0.1-5.8-6.1-14.7-11.5l-1.5-0.9l0.3-3.8c0.5-1.5,1.8-3.1,3.2-3.9
	c1.7-1,4.6-3.3,5.4-5.4c0.9-2.4,0.8-5.1-0.3-7.4c-1.1-2.3-3-4.1-5.5-5c-4.9-1.8-10.7,0.9-12.4,5.8c-0.8,2.1,0.1,6,0.7,7.6
	c0.5,1.4,0.5,3.4,0,4.9l-0.9,2.6l-2.6-0.8c-7.4-2.3-14.5-2.5-21-0.7c-1.6,0.4-3.3,0.2-4.7-0.8c-1.4-1-2.2-2.5-2.3-4.1
	c-0.1-1.3-0.7-13.1,4.3-30.5l-1.1-0.8c-0.3,0-0.7,0-0.8,0c-0.1,0.1-3.7,1.3-7.4,1.3c-1.5,0-2.9-0.2-4.1-0.7
	C2.2,57.4-2,48.5,0.9,40.5c2.2-6.1,8-10.2,14.5-10.2c1.8,0,3.6,0.3,5.3,0.9c4.7,1.7,8,7.3,8.4,7.9c0.1,0.1,0.3,0.4,0.5,0.5l1.7,0.1
	c4.2-8.9,9.4-17.5,15.6-25.6c1-1.3,2.5-2.1,4.2-2.2h0c1.8,0,3.3,0.7,4.3,1.9c0.1,0.1,6.6,7.4,17.4,12.9l2.2,1.1l-0.8,2.4
	c-0.5,1.5-1.8,3.1-3.2,3.8c-1.7,1-4.6,3.3-5.4,5.4c-0.9,2.4-0.8,5.1,0.3,7.4c1.1,2.3,3,4.1,5.5,5c4.9,1.8,10.7-0.9,12.4-5.8
	c0.7-2,0-5.7-0.7-7.6c-0.5-1.5-0.5-3.5,0.1-5l0.4-0.7l1.1-1.4l1.8,0.3c6.2,1.3,12.5,1.4,18.6,0.3c1.7-0.3,3.4,0.2,4.7,1.3
	c1.3,1.1,1.9,2.8,1.8,4.5c0,0.5-1,13-5.5,29.5c0.1,0,0.2,0,0.2,0c0.1-0.1,3.7-1.3,7.4-1.3c1.5,0,2.9,0.2,4.1,0.7
	c3.9,1.4,7,4.2,8.7,8c1.7,3.7,1.9,7.9,0.5,11.8c-2.2,6.1-8,10.2-14.5,10.2c-1.8,0-3.6-0.3-5.3-0.9c-4.4-1.6-7.7-6.7-8.3-7.8
	c-4.2,9.9-9.3,18.6-15,26c-1,1.3-2.5,2-4.1,2.1L79.6,116z M65.9,99.2c7.7,5,12.9,10.1,13.7,11c5.7-7.5,10.8-16.6,15.1-27l0.8-1.9
	l4.5,0.3c1.5,0.5,3.1,1.8,3.9,3.2c1,1.7,3.3,4.7,5.4,5.4c4.9,1.8,10.7-0.9,12.4-5.8c0.9-2.4,0.8-5.1-0.3-7.4c-1.1-2.3-3-4.1-5.5-5
	c-0.6-0.2-1.3-0.3-2.1-0.3c-2.6,0-5.4,1-5.4,1c-0.9,0.3-1.8,0.4-2.4,0.4c-0.7,0-1.7-0.1-2.6-0.4l-0.7-0.4l-3.1-2.4L100,68
	c4.9-16.9,5.9-30,6-30.5c-5.2,1.5-11.2,1.4-16.9,0.5c0.6,2.2,1.5,6.6,0.2,10.1c-2.2,6.1-8,10.2-14.5,10.2c-1.8,0-3.6-0.3-5.3-0.9
	c-3.9-1.4-7-4.2-8.7-8c-1.7-3.7-1.9-7.9-0.5-11.8c1.2-3.4,4.6-6.2,6.5-7.5c-9.9-5.8-15.7-12.4-15.7-12.4
	c-5.9,8.3-11.2,17.2-15.4,26.3l-0.8,1.8L28,45.2c-1.5-0.5-3.1-1.8-3.9-3.2c-1-1.7-3.3-4.7-5.4-5.4c-4.9-1.8-10.7,0.9-12.4,5.8
	c-1.8,5,0.8,10.6,5.8,12.4c0.6,0.2,1.3,0.3,2.1,0.3c2.6,0,5.4-1,5.4-1c0.9-0.3,1.8-0.4,2.4-0.4c0.7,0,1.6,0.1,2.6,0.4l0.7,0.4
	l4.7,3.6l-0.6,1.9c-5.4,17.7-4.7,29.8-4.6,30.3c5.8-2.2,12.8-2.2,19.9-0.6c-0.6-2.3-1.3-6.3-0.1-9.6c2.2-6.1,8-10.2,14.5-10.2
	c1.8,0,3.6,0.3,5.3,0.9c3.9,1.4,7,4.2,8.7,8c1.7,3.7,1.9,7.9,0.5,11.8C72.1,95.3,66.9,98.6,65.9,99.2z"/>
</svg>
