<?xml version="1.0" encoding="utf-8"?>
<!-- Generator: Adobe Illustrator 24.2.3, SVG Export Plug-In . SVG Version: 6.00 Build 0)  -->
<svg version="1.1" id="Layer_1" xmlns="http://www.w3.org/2000/svg" xmlns:xlink="http://www.w3.org/1999/xlink" x="0px" y="0px"
	 viewBox="0 0 128 128" style="enable-background:new 0 0 128 128;" xml:space="preserve">
<style type="text/css">
	.st0{fill:#1195CD;}
</style>
<path class="st0" d="M124.5,23.2h-7.2v-6.6c0-0.8-0.4-1.5-1.1-1.8c-7.9-4.2-16.1-6.4-24.3-6.4c-13.5,0-23.7,5.8-27.8,8.7
	c-2.5-1.7-7.3-4.5-13.7-6.5C45.4,9,40.4,8.2,35.2,8.4c-0.3,0-0.5,0.1-0.7,0.1c-7.6,0.3-15.3,2.4-22.6,6.3c-0.7,0.4-1.1,1-1.1,1.8
	v6.6H3.5c-1.7,0-3,1.4-3,3V107c0,1.7,1.4,3,3,3h48.1c1.4,5.6,6.4,9.6,12.3,9.6c5.9,0,10.9-4,12.3-9.6h48.1c1.7,0,3-1.4,3-3V26.3
	C127.5,24.6,126.1,23.2,124.5,23.2z M66,20.6c3.6-2.5,13.1-8.1,25.8-8.1c7.2,0,14.3,1.8,21.3,5.3v76.1c-7-3-14.2-4.5-21.3-4.5
	c-11.2,0-20.2,3.6-25.8,6.7C66,96.1,66,20.6,66,20.6z M36.4,12.5c4.1,0,7.9,0.6,11.3,1.6c0.6,0.2,1.2,0.3,1.8,0.5v29.8l-5.1-5.2
	c-0.4-0.4-0.9-0.6-1.5-0.6c-0.6,0-1.1,0.2-1.5,0.6l-5.1,5.2L36.4,12.5L36.4,12.5z M14.8,17.9c5.7-2.9,11.6-4.6,17.5-5.1v34.5
	c0,1.2,0.7,2.3,1.8,2.7c1.1,0.5,2.4,0.2,3.3-0.6l5.6-5.7l5.6,5.7c0.6,0.6,1.3,0.9,2.1,0.9c0.4,0,0.8-0.1,1.1-0.2
	c1.1-0.5,1.8-1.5,1.8-2.7V16.1c3.8,1.6,6.7,3.4,8.3,4.5v75.5c-5.6-3.1-14.6-6.7-25.8-6.7c-7.2,0-14.3,1.5-21.3,4.5
	C14.8,93.9,14.8,17.9,14.8,17.9z M123.4,105.9H74.6c-1.1,0-1.9,0.8-2,1.9c-0.4,4.4-4.2,7.8-8.5,7.8c-4.4,0-8.1-3.4-8.5-7.8
	c-0.1-1.1-1-1.9-2-1.9H4.6V27.3h6.1v69.8c0,0.7,0.4,1.4,1,1.7c0.6,0.4,1.4,0.4,2,0.1c7.4-3.6,14.9-5.4,22.5-5.4
	c12.5,0,22.1,5,26.7,7.9c0,0,0,0,0.1,0c0,0,0,0,0.1,0c0.1,0,0.2,0.1,0.3,0.1c0.1,0,0.1,0,0.2,0.1c0.2,0,0.4,0.1,0.5,0.1
	c0.2,0,0.4,0,0.5-0.1c0.1,0,0.1,0,0.2-0.1c0.1,0,0.2-0.1,0.3-0.1c0,0,0,0,0.1,0c0,0,0,0,0.1,0c4.6-3,14.2-7.9,26.7-7.9
	c7.6,0,15.1,1.8,22.5,5.4c0.6,0.3,1.4,0.3,2-0.1c0.6-0.4,1-1,1-1.7V27.3h6.1L123.4,105.9L123.4,105.9z"/>
</svg>
