<?xml version="1.0" encoding="utf-8"?>
<!-- Generator: Adobe Illustrator 24.2.3, SVG Export Plug-In . SVG Version: 6.00 Build 0)  -->
<svg version="1.1" id="Layer_1" xmlns="http://www.w3.org/2000/svg" xmlns:xlink="http://www.w3.org/1999/xlink" x="0px" y="0px"
	 viewBox="0 0 128 128" style="enable-background:new 0 0 128 128;" xml:space="preserve">
<style type="text/css">
	.st0{fill:#1195CD;}
</style>
<g>
	<path class="st0" d="M58.2,93.5c3.2-2.7,5.3-6.7,5.3-11.3c0-8-6.5-14.6-14.6-14.6c-8,0-14.6,6.5-14.6,14.6c0,4.5,2.1,8.6,5.3,11.3
		c-7.6,1.8-13.4,8.6-13.4,16.8V128h45.3v-17.6C71.6,102.2,65.8,95.3,58.2,93.5z M48.9,73c5.1,0,9.3,4.2,9.3,9.3s-4.2,9.3-9.3,9.3
		c-5.1,0-9.3-4.2-9.3-9.3C39.6,77.1,43.7,73,48.9,73z M66.3,122.7H31.6v-12.3c0-6.6,5.4-12,12-12h10.8c6.6,0,12,5.4,12,12
		L66.3,122.7L66.3,122.7z"/>
	<path class="st0" d="M110,93.5c3.2-2.7,5.3-6.7,5.3-11.3c0-3.3-1.1-6.3-2.9-8.8v-6.8c0-7.3-5-13.5-11.8-15.3c2.8-2.5,4.5-6,4.5-10
		C105,34,99,28,91.6,28c-0.3,0-0.6,0-0.9,0V0H4.6v65h61.9c1.1,1.6,2.7,2.8,4.5,3.5v11.6h5.3l0-15.9L74,64c-1.4-0.2-2.6-1-3.3-2.1
		L59,44.3l1.6-1.1l10.1,15.1c1.5,2.2,4.5,2.9,6.8,1.5l3.8-2c0.4-0.2,1.3-0.7,1.3-0.7c1.3-0.6,2.8-0.9,4.2-0.9h9.7
		c5.8,0,10.5,4.7,10.5,10.5v2.5c-1.9-0.9-4.1-1.5-6.3-1.5c-8,0-14.6,6.5-14.6,14.6c0,4.5,2.1,8.6,5.3,11.3
		c-7.6,1.8-13.4,8.6-13.4,16.8V128h45.3v-17.6C123.4,102.2,117.6,95.3,110,93.5z M99.7,41.4c0,4.5-3.6,8.1-8.1,8.1
		c-4.5,0-8.1-3.6-8.1-8.1c0-4.5,3.6-8.1,8.1-8.1C96.1,33.2,99.7,36.9,99.7,41.4z M80.3,52.3c0,0-1.3,0.6-1.6,0.9l-3.7,2L62.1,35.9
		l-10.4,7l11.3,16.9h-53V5.3h75.5v24.2c-4.3,2.2-7.2,6.7-7.2,11.9c0,4,1.8,7.6,4.6,10.1C81.9,51.6,81.1,51.9,80.3,52.3z M100.7,73
		c5.1,0,9.3,4.2,9.3,9.3s-4.2,9.3-9.3,9.3c-5.1,0-9.3-4.2-9.3-9.3C91.4,77.1,95.6,73,100.7,73z M118.1,122.7H83.4v-12.3
		c0-6.6,5.4-12,12-12h10.8c6.6,0,12,5.4,12,12L118.1,122.7L118.1,122.7z"/>
	<path class="st0" d="M38.7,8.7H20.8c-4.2,0-7.7,3.4-7.7,7.7v15.6c0,4.2,3.4,7.7,7.7,7.7h17.9c4.2,0,7.7-3.4,7.7-7.7V16.4
		C46.4,12.1,42.9,8.7,38.7,8.7z M41.1,31.9c0,1.3-1.1,2.4-2.4,2.4H20.8c-1.3,0-2.4-1.1-2.4-2.4V16.4c0-1.3,1.1-2.4,2.4-2.4h17.9
		c1.3,0,2.4,1.1,2.4,2.4C41.1,16.4,41.1,31.9,41.1,31.9z"/>
	<rect x="55.3" y="12.1" class="st0" width="25.4" height="5.3"/>
	<rect x="55.3" y="22.6" class="st0" width="14.8" height="5.3"/>
</g>
</svg>
