<?xml version="1.0" encoding="utf-8"?>
<!-- Generator: Adobe Illustrator 24.2.3, SVG Export Plug-In . SVG Version: 6.00 Build 0)  -->
<svg version="1.1" id="Layer_1" xmlns="http://www.w3.org/2000/svg" xmlns:xlink="http://www.w3.org/1999/xlink" x="0px" y="0px"
	 viewBox="0 0 128 128" style="enable-background:new 0 0 128 128;" xml:space="preserve">
<style type="text/css">
	.st0{fill:#1195CD;}
</style>
<g>
	<path class="st0" d="M19,117.8c-19,0-19-12.6-19-18c0-18,0-72.2,0-72.2c0.8-16.4,12.6-17,16.4-17.2c4.5-0.2,13.3-0.1,19.8-0.1
		c2.5,0,4.7,0.1,6.1,0.1h0.9l0,0c4.4,0,6.8,2.9,7.6,4.5l7.7,11c4.7,0,20.3-0.1,34.2-0.1c10.9,0,17.9,5.8,19.5,16
		c5.9,0.7,10.2,2.6,12.8,5.8c2.4,2.9,3.3,6.7,2.8,11.5c-1.1,9.4-5.7,25.6-9.1,37.5c-0.8,2.8-1.5,5.4-2.1,7.5
		c-3.1,11.5-9.4,13.3-15.1,13.6l-81,0C20.1,117.8,19.5,117.8,19,117.8z M5.4,27.7c0,0,0,54,0,72c0,5.7,0,12.7,13.6,12.7l1.5,0h81
		c3.1-0.2,7.5-0.4,10-9.7c0.6-2.1,1.3-4.7,2.1-7.5c3.3-11.7,7.9-27.8,8.9-36.7c0.4-3.3-0.1-5.7-1.6-7.5c-2-2.3-5.7-3.7-11.3-4.1
		c-1.3-0.1-2.3-1.1-2.5-2.3c-0.5-6.4-3.5-13.4-14.4-13.4c-16.6,0-35.5,0.2-35.5,0.2c-1-0.1-1.7-0.4-2.2-1.1l-8.8-12.6
		c-0.3-0.6-1-1.8-2.8-1.8l-1.1,0c-1.4,0-3.6,0-6.2-0.1c-6.4-0.1-15.1-0.2-19.5,0C11.5,16,5.9,17.2,5.4,27.7L5.4,27.7z"/>
	<path class="st0" d="M2.7,63c-0.1,0-0.2,0-0.2,0C1,62.8-0.1,61.5,0,60c0.6-6.3,5.1-18.3,18.3-18.5c14-0.2,90.8,0,91.6,0
		c1.5,0,2.7,1.2,2.7,2.7c0,1.5-1.2,2.7-2.7,2.7c0,0,0,0,0,0c-0.8,0-77.5-0.2-91.5,0C6.7,47,5.4,60,5.3,60.5C5.2,61.9,4.1,63,2.7,63z
		"/>
</g>
</svg>
