<?xml version="1.0" encoding="utf-8"?>
<!-- Generator: Adobe Illustrator 24.2.3, SVG Export Plug-In . SVG Version: 6.00 Build 0)  -->
<svg version="1.1" id="Layer_1" xmlns="http://www.w3.org/2000/svg" xmlns:xlink="http://www.w3.org/1999/xlink" x="0px" y="0px"
	 viewBox="0 0 128 128" style="enable-background:new 0 0 128 128;" xml:space="preserve">
<style type="text/css">
	.st0{fill:#1195CD;}
</style>
<g>
	<path class="st0" d="M74.8,96.8C78.5,94,81,89.5,81,84.5c0-8.4-6.9-15.3-15.3-15.3s-15.3,6.9-15.3,15.3c0,5,2.4,9.5,6.2,12.3
		c-4.4,1.7-8.2,4.7-10.9,8.4c-9.1-4.7-16.4-12.4-20.4-21.8c-1.1-2.6-2-5.3-2.6-8.1l0,0l7.5,6c1,0.8,2.5,0.6,3.3-0.4
		c0.8-1,0.6-2.5-0.4-3.3l-12.5-9.9c-1-0.8-2.5-0.6-3.3,0.4L7.4,80.5c-0.8,1-0.6,2.5,0.4,3.3c0.5,0.4,1.1,0.5,1.6,0.5
		c0.6,0,1.3-0.3,1.7-0.9l6.4-8.1c0.4,2,0.9,3.9,1.5,5.8c4,12.4,12.7,22.6,24.1,28.5c-1.2,2.9-1.9,6-1.9,9.3c0,1.3,1.1,2.4,2.4,2.4
		h44.3c0,0,0,0,0,0c1.3,0,2.4-1.1,2.4-2.4c0-0.1,0-0.3,0-0.4C90,108.6,83.7,100.3,74.8,96.8z M55.1,84.5c0-5.8,4.7-10.5,10.5-10.5
		s10.5,4.7,10.5,10.5s-4.7,10.5-10.5,10.5S55.1,90.3,55.1,84.5z M46,116.5c1.2-9.4,9.6-16.7,19.6-16.7s18.4,7.3,19.6,16.7H46z"/>
	<path class="st0" d="M128,61.7c-0.2-9.8-6.5-18.2-15.4-21.7c3.7-2.8,6.2-7.2,6.2-12.3c0-8.4-6.9-15.3-15.3-15.3
		s-15.3,6.9-15.3,15.3c0,5,2.4,9.5,6.2,12.3c-9,3.5-15.4,12.1-15.4,22.1c0,1.3,1.1,2.4,2.4,2.4h28.3c0,0.6,0,1.1,0,1.7
		c0,9.1-2.8,17.6-7.5,24.6c-1.8,2.6-3.9,5.1-6.2,7.3l1.6-8.5c0.2-1.3-0.6-2.5-1.9-2.8c-1.3-0.2-2.5,0.6-2.8,1.9l-2.9,15.7
		c-0.2,1.3,0.6,2.5,1.9,2.8l15.7,2.9c1.3,0.2,2.5-0.6,2.8-1.9c0.1-0.6,0-1.2-0.3-1.7c-0.3-0.5-0.9-1-1.6-1.1l-10.8-2
		c1.5-1.3,2.9-2.6,4.2-4.1c8-8.7,12.9-20.4,12.9-33.1c0-0.6,0-1.1,0-1.7h10.9c0,0,0,0,0,0c1.3,0,2.4-1.1,2.4-2.4
		C128,62,128,61.8,128,61.7z M92.9,27.7c0-5.8,4.7-10.5,10.5-10.5S114,21.9,114,27.7s-4.7,10.5-10.5,10.5S92.9,33.5,92.9,27.7z
		 M83.8,59.7C85,50.3,93.4,43,103.4,43s18.4,7.3,19.6,16.7H83.8z"/>
	<path class="st0" d="M46.7,64.5c1.3,0,2.4-1.1,2.4-2.4c0-0.1,0-0.3,0-0.4c-0.2-9.8-6.5-18.2-15.4-21.7c2.9-2.2,5.1-5.4,5.9-9.1
		c7.3-5.4,16.4-8.7,26.2-8.7c0.5,0,0.9,0,1.4,0c3.4,0.1,6.7,0.6,9.8,1.4l-10.1,3.7c-1.2,0.5-1.9,1.8-1.4,3.1
		c0.5,1.2,1.8,1.9,3.1,1.4l14.9-5.5c1.2-0.5,1.9-1.8,1.4-3.1L79.3,8.3c-0.5-1.2-1.8-1.9-3.1-1.4c-0.6,0.2-1,0.6-1.3,1.1
		c-0.3,0.6-0.4,1.3-0.1,1.9l3.3,8.8l0,0c-1.8-0.5-3.6-0.8-5.5-1.1c-2.3-0.3-4.6-0.5-7-0.5c-9.6,0-18.6,2.8-26.1,7.6
		c-1.4-7-7.6-12.3-15-12.3c-8.4,0-15.3,6.9-15.3,15.3c0,5,2.4,9.5,6.2,12.3C6.4,43.5,0,52.1,0,62.1c0,1.3,1.1,2.4,2.4,2.4L46.7,64.5
		C46.7,64.5,46.7,64.5,46.7,64.5z M14,27.7c0-5.8,4.7-10.5,10.5-10.5s10.5,4.7,10.5,10.5s-4.7,10.5-10.5,10.5S14,33.5,14,27.7z
		 M4.9,59.7C6.1,50.3,14.5,43,24.5,43s18.4,7.3,19.6,16.7H4.9z"/>
</g>
</svg>
